<svg width="24" height="25" viewBox="0 0 24 25" fill="none" xmlns="http://www.w3.org/2000/svg">
<path d="M6 10.97V8.97003C6 5.66003 7 2.97003 12 2.97003C17 2.97003 18 5.66003 18 8.97003V10.97" stroke="#626262" stroke-width="1.5" stroke-linecap="round" stroke-linejoin="round"/>
<path d="M12 19.47C13.3807 19.47 14.5 18.3507 14.5 16.97C14.5 15.5893 13.3807 14.47 12 14.47C10.6193 14.47 9.5 15.5893 9.5 16.97C9.5 18.3507 10.6193 19.47 12 19.47Z" stroke="#626262" stroke-width="1.5" stroke-linecap="round" stroke-linejoin="round"/>
<path d="M17 22.97H7C3 22.97 2 21.97 2 17.97V15.97C2 11.97 3 10.97 7 10.97H17C21 10.97 22 11.97 22 15.97V17.97C22 21.97 21 22.97 17 22.97Z" stroke="#626262" stroke-width="1.5" stroke-linecap="round" stroke-linejoin="round"/>
</svg>
