<?xml version="1.0" encoding="utf-8"?>
<!-- Generator: Adobe Illustrator 27.5.0, SVG Export Plug-In . SVG Version: 6.00 Build 0)  -->
<svg version="1.1" id="Layer_1" xmlns="http://www.w3.org/2000/svg" xmlns:xlink="http://www.w3.org/1999/xlink" x="0px" y="0px"
	 viewBox="0 0 1500 750" style="enable-background:new 0 0 1500 750;" xml:space="preserve">
<rect y="0" style="fill:#FFFFFF;" width="1500" height="750"/>
<g>
	<g>
		<path style="fill:#BAF4F4;" d="M1228.513,284.616c0,0-2.161,3.231-0.695,7.501c1.466,4.27,6.353,6.25,6.353,6.25
			s-2.416,3.817-0.541,9.28c1.523,4.434,5.994,5.89,5.994,5.89s0.305,10.706,6.397,21.821c6.093,11.115,15.311,11.385,23.973,8.05
			c10.811-4.161,12.998-10.552,8.44-25.959c-4.979-16.832-11.288-21.168-11.288-21.168s2.071-2.647,0.126-7.184
			c-2.17-5.061-5.654-5.58-5.654-5.58s2.162-3.318,0.291-7.372c-2.147-4.65-6.934-4.007-6.934-4.007s4.887-10.223-6.036-17.373
			c-5.264-3.446-10.832-0.346-10.832-0.346l-1.096-3.107l-8.599,2.461l1.094,3.8c0,0-5.441,1.381-7.865,7.661
			C1218.064,274.504,1228.513,284.616,1228.513,284.616z"/>
		<path style="fill:#FFFFFF;" d="M1244.241,267.379c3.179,3.161,3.678,7.52,6.404,6.147c2.726-1.374,1.026-8.812-2.152-11.972
			c-3.179-3.161-8.225-4.315-9.85-1.303C1237.017,263.263,1241.063,264.219,1244.241,267.379z"/>
		<path style="fill:#FFFFFF;" d="M1255.613,283.6c2.081,0.425,3.479-2.162,2.729-4.152c-0.75-1.991-2.879-4.518-4.852-3.006
			C1250.634,278.632,1252.778,283.021,1255.613,283.6z"/>
		<path style="fill:#FFFFFF;" d="M1266.829,323.617c1.755,5.612,1.66,11.43,5.066,10.521c3.405-0.908,4.264-6.751,2.509-12.363
			c-1.755-5.613-4.927-12.379-9.53-10.087C1260.378,313.928,1265.074,318.004,1266.829,323.617z"/>
		<path style="fill:#72D5D8;" d="M1260.947,346.069c-6.602,0-11.828-3.456-15.601-10.34c-5.427-9.901-6.325-19.351-6.466-21.654
			c-1.288-0.545-4.646-2.298-5.979-6.177c-1.495-4.356-0.43-7.724,0.219-9.173c-1.508-0.774-4.817-2.816-6.032-6.358
			c-1.225-3.568-0.124-6.454,0.468-7.623c-1.99-2.075-9.972-11.139-6.633-19.787c2.017-5.222,5.976-7.24,7.639-7.879l-0.889-3.09
			c-0.057-0.196-0.033-0.408,0.066-0.587c0.099-0.179,0.266-0.312,0.463-0.368l8.598-2.462c0.392-0.117,0.804,0.1,0.94,0.484
			l0.813,2.303c1.824-0.764,6.383-2.137,10.81,0.761c9.215,6.033,7.664,14.287,6.723,17.244c1.725,0.12,4.862,0.858,6.524,4.458
			c1.455,3.152,0.694,5.884,0.112,7.231c1.312,0.533,3.643,1.971,5.26,5.742c1.553,3.622,0.738,6.174,0.169,7.308
			c1.698,1.493,6.828,6.943,11.024,21.128c4.66,15.754,2.413,22.542-8.903,26.899C1266.911,345.423,1263.8,346.069,1260.947,346.069
			z M1229.156,285.043c-0.085,0.13-1.922,2.995-0.608,6.825c1.336,3.893,5.867,5.767,5.913,5.785
			c0.212,0.086,0.375,0.261,0.445,0.479c0.07,0.218,0.04,0.455-0.082,0.649c-0.088,0.142-2.185,3.599-0.463,8.617
			c1.382,4.023,5.463,5.392,5.503,5.406c0.31,0.1,0.523,0.386,0.533,0.711c0.003,0.105,0.378,10.663,6.303,21.473
			c4.974,9.074,12.719,11.665,23.019,7.701c10.452-4.023,12.39-10.103,7.978-25.02c-4.816-16.282-10.927-20.709-10.988-20.753
			c-0.174-0.121-0.291-0.309-0.322-0.519c-0.032-0.209,0.023-0.423,0.154-0.59c0.068-0.09,1.747-2.386,0.024-6.404
			c-1.978-4.613-5.027-5.118-5.058-5.122c-0.26-0.039-0.482-0.207-0.59-0.447c-0.108-0.239-0.086-0.518,0.057-0.738
			c0.077-0.12,1.896-3.031,0.236-6.628c-1.887-4.085-6.088-3.571-6.13-3.565c-0.287,0.039-0.56-0.082-0.726-0.31
			c-0.167-0.228-0.195-0.53-0.074-0.786c0.186-0.394,4.445-9.714-5.761-16.395c-4.818-3.156-9.982-0.347-10.034-0.317
			c-0.198,0.111-0.436,0.13-0.649,0.047c-0.212-0.08-0.379-0.25-0.454-0.464l-0.855-2.423l-7.157,2.05l0.88,3.057
			c0.058,0.2,0.032,0.416-0.072,0.597c-0.104,0.182-0.277,0.313-0.479,0.364c-0.205,0.053-5.093,1.385-7.335,7.191
			c-3.351,8.678,6.587,18.449,6.688,18.547C1229.317,284.321,1229.362,284.734,1229.156,285.043z"/>
		<path style="fill:#8B8BBE;" d="M1225.994,248.713c2.356-1.749,6.687-2.898,9.721-2.563c2.079,0.229,2.85,5.376,1.721,5.807
			c-2.687,1.023-6.121,1.928-9.313,3.019C1226.26,255.612,1223.638,250.462,1225.994,248.713z"/>
	</g>
	<g>
		<path style="fill:#BAF4F4;" d="M1315.825,334.828c13.837-21.369,27.867-47.435,29.14-54.948
			c1.399-8.254-5.356-12.237-5.356-12.237l2.243-4.113l-8.147-4.558l-2.23,3.771c0,0-9.279-5.208-18.049,5.951
			c-11.707,14.898-27.842,37.697-27.811,54.933C1285.645,340.862,1311.033,342.229,1315.825,334.828z"/>
		<path style="fill:#FFFFFF;" d="M1324.521,277.877c-3.105,4.456-5.055,7.67-8.342,6.894c-5.457-1.288-0.378-8.865,2.727-13.322
			c3.105-4.456,8.348-5.631,10.152-4.02C1332.677,270.661,1327.626,273.42,1324.521,277.877z"/>
		<path style="fill:#FFFFFF;" d="M1308.281,303.169c4.006-7.17,8.731-15.493,3.992-15.539c-8.304-0.08-20.079,26.518-16.025,28.678
			C1301.68,319.203,1304.274,310.338,1308.281,303.169z"/>
		<path style="fill:#72D5D8;" d="M1304.426,339.848c-2.36,0-4.823-0.329-7.182-1.024c-7.869-2.317-12.388-7.857-12.401-15.197
			c-0.024-13.3,9.127-31.424,27.975-55.41c7.689-9.782,15.944-7.44,18.344-6.463l1.878-3.175c0.213-0.361,0.676-0.487,1.041-0.28
			l8.147,4.559c0.369,0.206,0.503,0.671,0.301,1.043l-1.911,3.505c1.713,1.283,6.318,5.466,5.108,12.603
			c-1.382,8.152-16.241,35.144-29.254,55.24C1314.583,338.165,1309.768,339.848,1304.426,339.848z M1326.092,262.277
			c-3.255,0-7.691,1.335-12.06,6.894c-18.626,23.701-27.67,41.514-27.646,54.454c0.017,9.384,7.904,12.72,11.294,13.719
			c6.977,2.057,15.153,0.684,17.497-2.934c14.261-22.025,27.825-47.567,29.028-54.659c1.29-7.61-4.732-11.291-4.989-11.444
			c-0.356-0.212-0.483-0.669-0.284-1.034l1.877-3.443l-6.823-3.818l-1.847,3.123c-0.214,0.362-0.676,0.482-1.042,0.28
			C1330.93,263.323,1328.973,262.277,1326.092,262.277z"/>
		<path style="fill:#9DB235;" d="M1335.87,251.763c2.341-0.619,8.21,2.694,10.563,5.973c1.314,1.831-2.079,8.034-4.638,7.112
			c-3.602-1.298-8.655-4.568-9.668-6.122C1331.202,257.31,1333.3,252.443,1335.87,251.763z"/>
	</g>
	<g>
		<path style="fill:#BAF4F4;" d="M1245.578,193.308c0,0-2.565,2.921-1.67,7.346c0.895,4.425,5.482,7.027,5.482,7.027
			s-2.894,3.469-1.749,9.13c0.93,4.595,5.173,6.623,5.173,6.623s-1.097,10.654,3.491,22.47s13.691,13.288,22.715,11.114
			c11.262-2.713,14.265-8.763,11.761-24.633c-2.737-17.338-8.425-22.461-8.425-22.461s2.399-2.354,1.064-7.105
			c-1.49-5.302-4.876-6.271-4.876-6.271s2.577-3.007,1.251-7.271c-1.521-4.891-6.351-4.879-6.351-4.879s6.181-9.497-3.714-18.013
			c-4.769-4.104-10.694-1.758-10.694-1.758l-0.681-3.223l-8.847,1.316l0.588,3.91c0,0-5.575,0.658-8.799,6.567
			C1236.541,181.916,1245.578,193.308,1245.578,193.308z"/>
		<path style="fill:#FFFFFF;" d="M1263.425,178.273c2.738,3.549,2.664,7.937,5.546,6.932c2.882-1.006,2.169-8.603-0.569-12.151
			c-2.738-3.549-7.59-5.353-9.595-2.579C1256.8,173.248,1260.686,174.725,1263.425,178.273z"/>
		<path style="fill:#FFFFFF;" d="M1272.578,195.842c2.007,0.694,3.732-1.688,3.249-3.759c-0.484-2.072-2.263-4.855-4.417-3.614
			C1268.292,190.265,1269.844,194.898,1272.578,195.842z"/>
		<path style="fill:#FFFFFF;" d="M1278.469,236.981c1.007,5.794,0.152,11.549,3.647,11.093c3.495-0.456,5.11-6.136,4.103-11.929
			c-1.007-5.794-3.267-12.917-8.13-11.246C1273.339,226.533,1277.462,231.187,1278.469,236.981z"/>
		<path style="fill:#72D5D8;" d="M1272.403,258.644c-7.957,0-13.599-4.171-16.817-12.461c-4.087-10.526-3.741-20.012-3.581-22.313
			c-1.205-0.709-4.305-2.887-5.119-6.907c-0.913-4.513,0.582-7.713,1.416-9.064c-1.395-0.964-4.408-3.422-5.15-7.092
			c-0.747-3.698,0.72-6.415,1.46-7.497c-1.701-2.317-8.43-12.347-3.99-20.484c2.682-4.915,6.871-6.397,8.603-6.813l-0.478-3.18
			c-0.031-0.202,0.021-0.409,0.143-0.574c0.122-0.165,0.305-0.274,0.507-0.305l8.846-1.316c0.398-0.048,0.784,0.205,0.869,0.604
			l0.504,2.389c1.908-0.519,6.607-1.284,10.618,2.167c8.348,7.184,5.73,15.167,4.412,17.974c1.695,0.344,4.708,1.485,5.885,5.273
			c1.031,3.315-0.081,5.924-0.833,7.183c1.231,0.699,3.354,2.43,4.464,6.379c1.067,3.794-0.075,6.217-0.787,7.267
			c1.488,1.702,5.862,7.776,8.168,22.388c2.561,16.23-0.553,22.665-12.342,25.504
			C1276.776,258.352,1274.508,258.644,1272.403,258.644z M1246.16,193.815c-0.094,0.109-2.298,2.712-1.495,6.686
			c0.812,4.017,5.064,6.484,5.107,6.508c0.198,0.113,0.337,0.309,0.378,0.533c0.04,0.225-0.02,0.457-0.167,0.632
			c-0.106,0.13-2.637,3.283-1.585,8.483c0.84,4.146,4.713,6.061,4.751,6.08c0.292,0.141,0.467,0.451,0.434,0.774
			c-0.01,0.106-1.019,10.622,3.442,22.113c3.745,9.648,11.084,13.229,21.816,10.642c10.887-2.621,13.604-8.395,11.179-23.762
			c-2.663-16.873-8.124-21.959-8.179-22.008c-0.158-0.143-0.251-0.345-0.255-0.558c-0.005-0.213,0.079-0.418,0.231-0.567
			c0.08-0.081,2.044-2.136,0.861-6.345c-1.341-4.772-4.229-5.702-4.351-5.74c-0.249-0.075-0.447-0.273-0.519-0.523
			c-0.073-0.249-0.018-0.521,0.152-0.719c0.091-0.109,2.276-2.757,1.1-6.539c-1.327-4.268-5.439-4.335-5.614-4.336
			c-0.282-0.001-0.542-0.157-0.676-0.405c-0.134-0.247-0.124-0.55,0.029-0.787c0.236-0.366,5.676-9.051-3.57-17.008
			c-4.344-3.74-9.682-1.713-9.908-1.625c-0.211,0.081-0.45,0.067-0.648-0.039c-0.199-0.109-0.343-0.297-0.389-0.52l-0.53-2.513
			l-7.363,1.095l0.473,3.147c0.031,0.206-0.023,0.417-0.15,0.583c-0.127,0.166-0.315,0.273-0.523,0.298
			c-0.21,0.026-5.231,0.705-8.212,6.169c-4.456,8.165,4.119,19.153,4.207,19.263C1246.414,193.12,1246.405,193.535,1246.16,193.815
			L1246.16,193.815z"/>
		<path style="fill:#F85258;" d="M1247.821,157.924c2.502-1.532,6.919-2.291,9.91-1.688c2.05,0.414,2.36,5.609,1.197,5.937
			c-2.767,0.78-6.268,1.376-9.545,2.178C1247.472,164.819,1245.318,159.456,1247.821,157.924z"/>
	</g>
	<g>
		<g>
			<path style="fill:#8B8BBE;" d="M1347.695,660.541h-128.841c-5.934,0-10.745-4.811-10.745-10.745v-20.924h150.332v20.924
				C1358.44,655.73,1353.63,660.541,1347.695,660.541z"/>
			<path style="fill:#9E9ED0;" d="M1161.114,345.188l32.753,290.149c0.946,8.381,8.032,14.717,16.466,14.724l146.39,0.121
				c8.484,0.007,15.605-6.39,16.504-14.827l30.818-289.162L1161.114,345.188z"/>
			<path style="fill:#8B8BBE;" d="M1407.851,352.819h-248.518c-7.586,0-13.736-6.15-13.736-13.736
				c0-7.586,6.15-13.736,13.736-13.736h248.518c7.586,0,13.736,6.15,13.736,13.736
				C1421.587,346.669,1415.437,352.819,1407.851,352.819z"/>
			<path style="fill:#9E9ED0;" d="M1392.081,332.469h-217.74c-5.057,0-9.157-4.1-9.157-9.157c0-5.058,4.1-9.157,9.157-9.157h217.74
				c5.057,0,9.157,4.1,9.157,9.157C1401.238,328.37,1397.138,332.469,1392.081,332.469z"/>
			<path style="fill:#8B8BBE;" d="M1349.366,323.312h-136.38c-1.394,0-2.524-1.13-2.524-2.525v-7.816
				c0-2.789,2.26-5.049,5.049-5.049h131.331c2.789,0,5.049,2.261,5.049,5.049v7.816
				C1351.89,322.182,1350.76,323.312,1349.366,323.312z"/>
			<path style="fill:#FFFFFF;" d="M1278.791,556.154h-19.081c-3.287,0-6.221-1.705-7.849-4.561c-1.627-2.857-1.599-6.25,0.077-9.078
				l7.922-13.367c0.824-1.391,2.617-1.849,4.008-1.025c1.39,0.823,1.849,2.617,1.025,4.007l-7.922,13.367
				c-0.851,1.437-0.302,2.716-0.027,3.199c0.275,0.483,1.096,1.608,2.766,1.608h19.081c1.616,0,2.925,1.309,2.925,2.925
				C1281.716,554.845,1280.407,556.154,1278.791,556.154z"/>
			<path style="fill:#FFFFFF;" d="M1306.839,556.154h-10.592c-1.616,0-2.925-1.309-2.925-2.925c0-1.616,1.309-2.925,2.925-2.925
				h10.592c1.665,0,2.486-1.119,2.762-1.601c0.276-0.482,0.826-1.756-0.016-3.193l-9.908-16.896
				c-0.817-1.394-0.35-3.186,1.044-4.003c1.391-0.82,3.186-0.351,4.003,1.043l9.908,16.896c1.658,2.829,1.676,6.216,0.046,9.061
				C1313.048,554.456,1310.118,556.154,1306.839,556.154z"/>
			<path style="fill:#FFFFFF;" d="M1267.987,524.092c-0.507,0-1.02-0.133-1.488-0.41c-1.39-0.823-1.849-2.618-1.025-4.007
				l10.153-17.133c1.644-2.774,4.548-4.428,7.77-4.428c3.254,0.007,6.159,1.676,7.794,4.464l8.458,14.422
				c0.817,1.394,0.35,3.186-1.044,4.003c-1.393,0.819-3.186,0.35-4.003-1.043l-8.457-14.422c-0.83-1.417-2.192-1.572-2.74-1.574
				c-0.558,0-1.912,0.154-2.745,1.56l-10.153,17.133C1269.96,523.579,1268.987,524.092,1267.987,524.092z"/>
			<path style="fill:#FFFFFF;" d="M1253.675,530.903l10.333-4.07c0.92-0.363,1.913,0.33,1.89,1.319l-0.251,10.677
				c-0.025,1.085-1.233,1.719-2.141,1.124l-10.082-6.607C1252.486,532.732,1252.631,531.314,1253.675,530.903z"/>
			<path style="fill:#FFFFFF;" d="M1301.131,510.699l-1.114,11.049c-0.099,0.984-1.17,1.549-2.038,1.076l-9.377-5.113
				c-0.953-0.519-0.963-1.884-0.019-2.418l10.49-5.937C1300.051,508.804,1301.244,509.582,1301.131,510.699z"/>
			<path style="fill:#FFFFFF;" d="M1295.705,560.355l-8.851-6.707c-0.788-0.597-0.713-1.805,0.144-2.3l9.249-5.34
				c0.94-0.543,2.11,0.159,2.074,1.243l-0.398,12.047C1297.886,560.42,1296.599,561.033,1295.705,560.355z"/>
		</g>
		<g>
			<g>
				<path style="fill:#FFFFFF;" d="M1228.673,453.834c1.297-0.216,2.994-0.401,5.155-0.401c2.655,0,4.599,0.617,5.834,1.728
					c1.142,0.988,1.821,2.5,1.821,4.353c0,1.882-0.556,3.364-1.605,4.444c-1.42,1.512-3.735,2.284-6.359,2.284
					c-0.802,0-1.543-0.03-2.161-0.185v8.334h-2.685V453.834z M1231.359,463.866c0.587,0.154,1.327,0.216,2.223,0.216
					c3.241,0,5.217-1.575,5.217-4.445c0-2.747-1.945-4.073-4.908-4.073c-1.173,0-2.068,0.092-2.531,0.216V463.866z"/>
				<path style="fill:#FFFFFF;" d="M1246.638,453.588h2.685v18.551h8.89v2.253h-11.575V453.588z"/>
				<path style="fill:#FFFFFF;" d="M1266.115,467.849l-2.161,6.543h-2.778l7.068-20.804h3.241l7.099,20.804h-2.871l-2.222-6.543
					H1266.115z M1272.937,465.75l-2.037-5.989c-0.463-1.358-0.772-2.592-1.081-3.796h-0.061c-0.309,1.235-0.649,2.5-1.05,3.766
					l-2.037,6.019H1272.937z"/>
				<path style="fill:#FFFFFF;" d="M1282.815,471.12c1.204,0.74,2.963,1.357,4.815,1.357c2.747,0,4.352-1.45,4.352-3.549
					c0-1.944-1.111-3.056-3.92-4.137c-3.395-1.204-5.494-2.963-5.494-5.895c0-3.241,2.685-5.648,6.729-5.648
					c2.13,0,3.673,0.493,4.599,1.018l-0.74,2.192c-0.679-0.37-2.068-0.988-3.951-0.988c-2.84,0-3.92,1.698-3.92,3.118
					c0,1.944,1.266,2.902,4.136,4.012c3.518,1.358,5.309,3.057,5.309,6.112c0,3.209-2.377,5.988-7.284,5.988
					c-2.007,0-4.198-0.586-5.309-1.327L1282.815,471.12z"/>
				<path style="fill:#FFFFFF;" d="M1303.897,455.872h-6.327v-2.284h15.402v2.284h-6.358v18.52h-2.717V455.872z"/>
				<path style="fill:#FFFFFF;" d="M1319.516,453.588v20.804h-2.685v-20.804H1319.516z"/>
				<path style="fill:#FFFFFF;" d="M1340.29,473.712c-0.988,0.494-2.963,0.988-5.494,0.988c-5.865,0-10.278-3.704-10.278-10.525
					c0-6.513,4.414-10.926,10.865-10.926c2.592,0,4.229,0.556,4.939,0.925l-0.648,2.192c-1.019-0.493-2.469-0.864-4.198-0.864
					c-4.877,0-8.118,3.118-8.118,8.581c0,5.093,2.933,8.365,7.994,8.365c1.636,0,3.303-0.34,4.383-0.864L1340.29,473.712z"/>
			</g>
		</g>
	</g>
</g>
<g>
	<g>
		<path style="fill:#ED5863;" d="M994.227,657.575H865.385c-5.934,0-10.745-4.811-10.745-10.745v-20.924h150.332v20.924
			C1004.972,652.764,1000.161,657.575,994.227,657.575z"/>
		<path style="fill:#FD6A6F;" d="M807.645,342.221l32.753,290.149c0.946,8.381,8.032,14.717,16.466,14.724l146.39,0.121
			c8.484,0.007,15.605-6.39,16.504-14.827l30.818-289.162L807.645,342.221z"/>
		<path style="fill:#ED5863;" d="M1054.383,349.853H805.865c-7.586,0-13.736-6.15-13.736-13.736c0-7.586,6.15-13.736,13.736-13.736
			h248.518c7.586,0,13.736,6.15,13.736,13.736C1068.119,343.703,1061.969,349.853,1054.383,349.853z"/>
		<path style="fill:#FD6A6F;" d="M1038.612,329.503h-217.74c-5.057,0-9.157-4.1-9.157-9.157c0-5.058,4.1-9.157,9.157-9.157h217.74
			c5.057,0,9.157,4.1,9.157,9.157C1047.769,325.403,1043.67,329.503,1038.612,329.503z"/>
		<path style="fill:#FFFFFF;" d="M925.323,553.188h-19.082c-3.287,0-6.221-1.705-7.849-4.561c-1.627-2.857-1.598-6.251,0.078-9.078
			l7.922-13.367c0.823-1.39,2.617-1.849,4.008-1.025c1.39,0.823,1.848,2.617,1.025,4.007l-7.922,13.367
			c-0.852,1.437-0.303,2.716-0.028,3.199c0.275,0.483,1.096,1.608,2.766,1.608h19.082c1.616,0,2.925,1.309,2.925,2.925
			C928.248,551.879,926.938,553.188,925.323,553.188z"/>
		<path style="fill:#FFFFFF;" d="M953.371,553.188h-10.592c-1.616,0-2.925-1.309-2.925-2.925c0-1.616,1.309-2.925,2.925-2.925
			h10.592c1.665,0,2.487-1.12,2.762-1.602c0.276-0.481,0.826-1.757-0.016-3.192l-9.908-16.896c-0.817-1.394-0.35-3.186,1.044-4.003
			c1.392-0.82,3.185-0.352,4.003,1.043l9.909,16.896c1.658,2.829,1.675,6.216,0.046,9.061
			C959.58,551.49,956.649,553.188,953.371,553.188z"/>
		<path style="fill:#FFFFFF;" d="M914.519,521.126c-0.507,0-1.02-0.133-1.488-0.41c-1.39-0.823-1.849-2.618-1.025-4.007
			l10.153-17.133c1.644-2.774,4.548-4.428,7.771-4.428c3.253,0.007,6.159,1.676,7.793,4.463l8.458,14.423
			c0.817,1.394,0.35,3.186-1.044,4.003c-1.394,0.818-3.186,0.351-4.003-1.043l-8.457-14.423c-0.83-1.416-2.192-1.572-2.739-1.574
			c-0.558,0-1.912,0.155-2.746,1.561l-10.153,17.133C916.492,520.613,915.519,521.126,914.519,521.126z"/>
		<path style="fill:#FFFFFF;" d="M900.207,527.937l10.333-4.07c0.92-0.363,1.913,0.33,1.89,1.319l-0.25,10.677
			c-0.025,1.085-1.233,1.719-2.141,1.124l-10.082-6.607C899.017,529.766,899.163,528.348,900.207,527.937z"/>
		<path style="fill:#FFFFFF;" d="M947.663,507.732l-1.114,11.049c-0.099,0.984-1.17,1.549-2.038,1.076l-9.376-5.113
			c-0.953-0.519-0.964-1.883-0.019-2.418l10.491-5.937C946.582,505.837,947.775,506.616,947.663,507.732z"/>
		<path style="fill:#FFFFFF;" d="M942.236,557.389l-8.851-6.707c-0.789-0.597-0.713-1.805,0.144-2.3l9.249-5.34
			c0.94-0.543,2.11,0.159,2.074,1.243l-0.398,12.047C944.417,557.453,943.131,558.067,942.236,557.389z"/>
		<path style="fill:#ED5863;" d="M996.016,318.934H859.399c-1.329,0-2.406-1.077-2.406-2.406v-6.76c0-2.658,2.154-4.812,4.812-4.812
			H993.61c2.658,0,4.812,2.154,4.812,4.812v6.76C998.422,317.857,997.345,318.934,996.016,318.934z"/>
		<g>
			<g>
				<path style="fill:#FFFFFF;" d="M903.435,472.457c-1.204,0.432-3.581,1.143-6.39,1.143c-3.148,0-5.741-0.803-7.778-2.747
					c-1.791-1.728-2.901-4.507-2.901-7.747c0.031-6.205,4.291-10.741,11.266-10.741c2.408,0,4.291,0.525,5.186,0.957l-0.648,2.192
					c-1.111-0.494-2.5-0.895-4.599-0.895c-5.062,0-8.365,3.148-8.365,8.365c0,5.278,3.179,8.395,8.026,8.395
					c1.759,0,2.963-0.246,3.581-0.556v-6.204h-4.229v-2.16h6.852V472.457z"/>
				<path style="fill:#FFFFFF;" d="M909.085,452.579h2.685v18.551h8.89v2.253h-11.575V452.579z"/>
				<path style="fill:#FFFFFF;" d="M928.562,466.84l-2.161,6.543h-2.778l7.068-20.804h3.241l7.099,20.804h-2.871l-2.222-6.543
					H928.562z M935.383,464.741l-2.037-5.989c-0.463-1.357-0.772-2.592-1.081-3.796h-0.061c-0.309,1.235-0.649,2.5-1.049,3.766
					l-2.037,6.019H935.383z"/>
				<path style="fill:#FFFFFF;" d="M945.261,470.111c1.204,0.741,2.963,1.358,4.815,1.358c2.747,0,4.352-1.45,4.352-3.549
					c0-1.944-1.111-3.056-3.92-4.137c-3.395-1.204-5.494-2.963-5.494-5.895c0-3.241,2.685-5.648,6.729-5.648
					c2.13,0,3.673,0.493,4.599,1.018l-0.74,2.191c-0.679-0.37-2.069-0.988-3.951-0.988c-2.84,0-3.92,1.698-3.92,3.118
					c0,1.944,1.266,2.902,4.136,4.012c3.518,1.358,5.309,3.057,5.309,6.112c0,3.209-2.377,5.988-7.284,5.988
					c-2.007,0-4.198-0.586-5.309-1.327L945.261,470.111z"/>
				<path style="fill:#FFFFFF;" d="M962.023,470.111c1.204,0.741,2.963,1.358,4.815,1.358c2.747,0,4.352-1.45,4.352-3.549
					c0-1.944-1.111-3.056-3.92-4.137c-3.395-1.204-5.494-2.963-5.494-5.895c0-3.241,2.685-5.648,6.729-5.648
					c2.13,0,3.673,0.493,4.599,1.018l-0.74,2.191c-0.679-0.37-2.068-0.988-3.951-0.988c-2.84,0-3.92,1.698-3.92,3.118
					c0,1.944,1.266,2.902,4.136,4.012c3.518,1.358,5.309,3.057,5.309,6.112c0,3.209-2.377,5.988-7.284,5.988
					c-2.007,0-4.198-0.586-5.309-1.327L962.023,470.111z"/>
			</g>
		</g>
	</g>
	<g>
		<path style="fill:#9DB235;" d="M944.318,195.945c3.406-10.515,3.475-16.108,3.475-16.108s-1.698-0.925-2.607-1.982
			c-0.91-1.057-0.834-4.385,1.669-6.594c2.273-2.007,10.752-1.75,14.042,0.999c2.169,1.814,2.213,3.447,1.75,5.958
			c-0.474,2.565-3.435,2.483-3.435,2.483s-1.228,7.096,0.309,15.879c1.109,6.335,9.773,11.32,8.623,24.488
			c-1.408,16.122-4.936,61.039-8.749,66.825c-2.888,4.383-27.616,4.26-31.125-2.674c-3.509-6.934,1.027-51.592,2.183-67.071
			C931.607,202.669,941.962,203.218,944.318,195.945z"/>
		<path style="fill:#E7EAD0;" d="M955.619,181.106c-3.595,0-6.59-0.731-6.733-0.766c-0.196-0.048-0.317-0.247-0.268-0.444
			c0.049-0.196,0.248-0.313,0.444-0.267c0.04,0.009,3.956,0.968,8.095,0.696c0.197,0,0.377,0.141,0.389,0.343
			c0.013,0.201-0.14,0.376-0.342,0.389C956.668,181.091,956.137,181.106,955.619,181.106z"/>
		<path style="fill:#81991D;" d="M960.435,172.946c0.988,1.236-2.447,1.632-5.219,1.255c-2.772-0.377-6.168-1.29-5.87-2.764
			C949.704,169.663,958.161,170.1,960.435,172.946z"/>
		<path style="fill:#FFFFFF;" d="M958.656,212.489c1.455,4.431,0.349,8.878,3.436,8.204c1.872-0.234,2.025-4.37,0.57-8.801
			s-4.021-9.578-6.389-8.922C953.771,204.259,957.201,208.058,958.656,212.489z"/>
		<path style="fill:#FFFFFF;" d="M957.933,260.106c-2.243-0.156-3.005,4.001-3.621,9.622c-0.615,5.62-1.583,12.563,1.162,12.861
			c2.568,0.679,3.77-7.144,4.385-12.765C960.474,264.204,960.002,259.687,957.933,260.106z"/>
	</g>
	<g>
		<path style="fill:#D98858;" d="M870.097,140.503c-1.312-10.975-3.592-16.083-3.592-16.083s-1.929-0.129-3.198-0.708
			c-1.269-0.578-2.594-3.633-1.247-6.687c1.224-2.774,9.031-6.093,13.169-4.975c2.729,0.738,3.453,2.202,4.085,4.677
			c0.644,2.528-2.08,3.693-2.08,3.693s1.857,6.958,6.932,14.29c3.66,5.288,13.616,6.186,18.087,18.624
			c5.475,15.23,21.085,57.494,20.047,64.345c-0.787,5.19-23.292,15.436-29.383,10.609c-6.091-4.826-20.678-47.278-26.112-61.818
			C861.372,151.933,871.005,148.094,870.097,140.503z"/>
		<path style="fill:#E7EAD0;" d="M874.143,122.295c-3.265,1.506-6.29,2.097-6.434,2.125c-0.198,0.038-0.391-0.092-0.429-0.291
			c-0.038-0.198,0.094-0.388,0.291-0.428c0.04-0.008,3.997-0.778,7.642-2.758c0.179-0.083,0.401-0.03,0.497,0.148
			c0.096,0.177,0.03,0.4-0.148,0.497C875.089,121.842,874.613,122.078,874.143,122.295z"/>
		<path style="fill:#81991D;" d="M875.098,112.868c1.415,0.708-1.538,2.507-4.213,3.326c-2.675,0.819-6.141,1.413-6.488-0.05
			C863.979,114.382,871.841,111.236,875.098,112.868z"/>
		<path style="fill:#FFFFFF;" d="M890.046,149.52c3.177,3.414,4.035,7.916,6.556,6.011c1.602-0.997,0.008-4.817-3.169-8.231
			c-3.177-3.414-7.664-7.013-9.538-5.425C882.163,144.093,886.869,146.106,890.046,149.52z"/>
		<path style="fill:#FFFFFF;" d="M909.336,193.061c-2.102,0.798-1.053,4.892,0.743,10.254c1.796,5.361,3.825,12.071,6.443,11.192
			c2.617-0.459,0.431-8.066-1.365-13.428C913.359,195.718,911.039,191.814,909.336,193.061z"/>
	</g>
</g>
<g>
	<g>
		<g>
			<path style="fill:#859E1E;" d="M640.758,663.615H511.917c-5.934,0-10.745-4.811-10.745-10.745v-20.924h150.332v20.924
				C651.503,658.805,646.693,663.615,640.758,663.615z"/>
			<path style="fill:#9DB235;" d="M454.177,348.262l32.753,290.149c0.946,8.381,8.032,14.717,16.466,14.724l146.39,0.121
				c8.484,0.007,15.605-6.39,16.504-14.826l30.818-289.162L454.177,348.262z"/>
			<path style="fill:#859E1E;" d="M700.914,355.893H452.396c-7.586,0-13.736-6.15-13.736-13.736c0-7.586,6.15-13.736,13.736-13.736
				h248.518c7.586,0,13.736,6.15,13.736,13.736C714.65,349.743,708.5,355.893,700.914,355.893z"/>
			<path style="fill:#9DB235;" d="M685.144,335.544h-217.74c-5.057,0-9.157-4.1-9.157-9.157c0-5.058,4.1-9.157,9.157-9.157h217.74
				c5.057,0,9.157,4.1,9.157,9.157C694.301,331.444,690.201,335.544,685.144,335.544z"/>
			<path style="fill:#859E1E;" d="M642.636,323.967H505.842c-1.28,0-2.318-1.038-2.318-2.318v-6.017c0-2.56,2.075-4.635,4.635-4.635
				h132.158c2.56,0,4.635,2.075,4.635,4.635v6.017C644.953,322.93,643.916,323.967,642.636,323.967z"/>
			<path style="fill:#FFFFFF;" d="M571.854,559.229h-19.081c-3.287,0-6.221-1.705-7.849-4.562c-1.627-2.857-1.599-6.25,0.077-9.077
				l7.922-13.368c0.823-1.391,2.618-1.849,4.008-1.025c1.39,0.823,1.849,2.617,1.025,4.007l-7.922,13.368
				c-0.851,1.437-0.302,2.716-0.027,3.199c0.275,0.483,1.096,1.608,2.766,1.608h19.081c1.616,0,2.925,1.309,2.925,2.925
				C574.779,557.92,573.47,559.229,571.854,559.229z"/>
			<path style="fill:#FFFFFF;" d="M599.902,559.229H589.31c-1.616,0-2.925-1.309-2.925-2.925c0-1.616,1.309-2.925,2.925-2.925
				h10.592c1.665,0,2.486-1.119,2.762-1.601c0.276-0.482,0.827-1.756-0.016-3.193l-9.908-16.897
				c-0.817-1.394-0.35-3.186,1.044-4.003c1.392-0.82,3.185-0.351,4.003,1.043l9.908,16.897c1.659,2.828,1.676,6.216,0.046,9.061
				C606.111,557.531,603.181,559.229,599.902,559.229z"/>
			<path style="fill:#FFFFFF;" d="M561.051,527.167c-0.507,0-1.021-0.133-1.489-0.41c-1.39-0.823-1.849-2.618-1.025-4.007
				l10.154-17.133c1.644-2.774,4.548-4.428,7.771-4.428c3.253,0.007,6.158,1.676,7.793,4.463l8.457,14.423
				c0.817,1.394,0.35,3.186-1.044,4.003c-1.393,0.817-3.186,0.351-4.003-1.043l-8.457-14.423c-0.83-1.416-2.192-1.572-2.739-1.573
				c-0.558,0-1.912,0.155-2.746,1.56l-10.154,17.133C563.023,526.654,562.05,527.167,561.051,527.167z"/>
			<path style="fill:#FFFFFF;" d="M546.738,533.977l10.332-4.07c0.92-0.363,1.913,0.33,1.89,1.319l-0.25,10.677
				c-0.026,1.085-1.233,1.719-2.141,1.124l-10.082-6.607C545.549,535.806,545.695,534.389,546.738,533.977z"/>
			<path style="fill:#FFFFFF;" d="M594.194,513.773l-1.114,11.049c-0.099,0.984-1.17,1.549-2.038,1.076l-9.377-5.113
				c-0.953-0.519-0.963-1.883-0.019-2.418l10.491-5.937C593.113,511.878,594.307,512.657,594.194,513.773z"/>
			<path style="fill:#FFFFFF;" d="M588.768,563.43l-8.851-6.707c-0.788-0.597-0.713-1.805,0.144-2.3l9.249-5.34
				c0.94-0.543,2.11,0.159,2.074,1.243l-0.398,12.047C590.949,563.494,589.662,564.107,588.768,563.43z"/>
		</g>
		<g>
			<g>
				<path style="fill:#FFFFFF;" d="M532.237,462.765c0,7.161-4.352,10.957-9.661,10.957c-5.494,0-9.352-4.259-9.352-10.557
					c0-6.606,4.105-10.926,9.661-10.926C528.564,452.24,532.237,456.592,532.237,462.765z M516.094,463.105
					c0,4.444,2.408,8.426,6.636,8.426c4.26,0,6.667-3.92,6.667-8.642c0-4.137-2.161-8.457-6.636-8.457
					C518.316,454.431,516.094,458.536,516.094,463.105z"/>
				<path style="fill:#FFFFFF;" d="M537.269,452.857c1.358-0.277,3.303-0.432,5.155-0.432c2.871,0,4.723,0.524,6.019,1.698
					c1.049,0.925,1.636,2.345,1.636,3.951c0,2.746-1.729,4.568-3.92,5.308v0.092c1.605,0.556,2.562,2.038,3.056,4.198
					c0.679,2.902,1.173,4.908,1.605,5.71h-2.778c-0.34-0.587-0.802-2.376-1.389-4.97c-0.617-2.871-1.728-3.951-4.167-4.043h-2.531
					v9.013h-2.685V452.857z M539.954,462.333h2.747c2.871,0,4.692-1.574,4.692-3.951c0-2.686-1.945-3.858-4.784-3.89
					c-1.296,0-2.223,0.124-2.655,0.247V462.333z"/>
				<path style="fill:#FFFFFF;" d="M571.346,472.457c-1.204,0.432-3.581,1.143-6.39,1.143c-3.148,0-5.741-0.803-7.778-2.747
					c-1.79-1.728-2.902-4.507-2.902-7.747c0.031-6.205,4.291-10.741,11.266-10.741c2.408,0,4.29,0.525,5.186,0.957l-0.648,2.192
					c-1.111-0.494-2.5-0.895-4.599-0.895c-5.062,0-8.365,3.148-8.365,8.365c0,5.278,3.179,8.395,8.025,8.395
					c1.759,0,2.963-0.246,3.58-0.556v-6.204h-4.228v-2.16h6.852V472.457z"/>
				<path style="fill:#FFFFFF;" d="M580.36,466.84l-2.161,6.543h-2.778l7.068-20.804h3.241l7.099,20.804h-2.871l-2.222-6.543H580.36
					z M587.181,464.741l-2.037-5.989c-0.463-1.357-0.772-2.592-1.081-3.796h-0.061c-0.309,1.235-0.649,2.5-1.049,3.766l-2.037,6.019
					H587.181z"/>
				<path style="fill:#FFFFFF;" d="M597.43,473.383v-20.804h2.932l6.667,10.525c1.543,2.438,2.747,4.629,3.735,6.759l0.062-0.031
					c-0.247-2.777-0.309-5.309-0.309-8.55v-8.704h2.531v20.804h-2.717l-6.605-10.556c-1.451-2.315-2.84-4.691-3.89-6.945
					l-0.092,0.031c0.154,2.624,0.216,5.124,0.216,8.581v8.889H597.43z"/>
				<path style="fill:#FFFFFF;" d="M621.969,452.579v20.804h-2.685v-20.804H621.969z"/>
				<path style="fill:#FFFFFF;" d="M642.743,472.704c-0.988,0.494-2.963,0.988-5.494,0.988c-5.865,0-10.278-3.704-10.278-10.526
					c0-6.513,4.414-10.926,10.865-10.926c2.592,0,4.229,0.556,4.939,0.925l-0.648,2.191c-1.019-0.493-2.469-0.864-4.198-0.864
					c-4.877,0-8.118,3.118-8.118,8.581c0,5.093,2.932,8.365,7.994,8.365c1.636,0,3.303-0.34,4.383-0.864L642.743,472.704z"/>
			</g>
		</g>
	</g>
	<path style="fill:#FFF2AB;" d="M595.073,188.438l20.724,1.222c0,0,4.951,5.919,9.401,9.124c2.939,2.117,6.497,3.333,8.575,3.915
		c0.715,0.2,0.87,1.133,0.263,1.56c-2.841,2.002-9.512,5.969-17.817,6c-8.526,0.032-16.85-5.476-16.85-5.476L595.073,188.438z"/>
	<path style="fill:#FECE3B;" d="M581.434,154.001c7.314,6.417,14.685,17.091,30.397,21.173c12.079,3.138,25.235-1.84,30.673-4.31
		c0.799-0.363,1.565,0.545,1.086,1.281c-3.01,4.621-10.807,14.346-25.362,18.884c-12.304,3.836-19.302,1.547-19.302,1.547
		s4.617,14.147,1.482,29.708c-1.672,8.297-6.024,12.56-8.127,14.19c-0.523,0.406-1.286,0.126-1.403-0.526
		c-0.826-4.589-3.835-20.071-8.651-30.986c-7.189-16.292-11.142-17.725-17.27-28.358c-7.323-12.707-6.213-22.273-0.148-26.915
		C567.842,147.37,574.518,147.933,581.434,154.001z"/>
	<path style="fill:#FFE7B0;" d="M599.423,192.976c-0.044,0-0.088-0.008-0.131-0.024c-24.711-9.082-29.731-32.503-29.779-32.738
		c-0.042-0.205,0.091-0.405,0.297-0.447c0.201-0.04,0.405,0.091,0.447,0.296c0.047,0.231,4.994,23.244,29.297,32.177
		c0.197,0.072,0.298,0.29,0.225,0.486C599.722,192.881,599.577,192.976,599.423,192.976z"/>
	<linearGradient id="SVGID_1_" gradientUnits="userSpaceOnUse" x1="569.5636" y1="157.0995" x2="553.056" y2="130.929">
		<stop  offset="0.3368" style="stop-color:#FFCE3D"/>
		<stop  offset="0.4134" style="stop-color:#FBC53C"/>
		<stop  offset="0.5367" style="stop-color:#EFAE39"/>
		<stop  offset="0.6905" style="stop-color:#DC8733"/>
		<stop  offset="0.7953" style="stop-color:#CD692F"/>
	</linearGradient>
	<path style="fill:url(#SVGID_1_);" d="M565.898,151.897c1.766-1.025,3.935-3.433,3.935-3.433s-2.97-1.14-5.446-5.182
		c-1.625-2.652-2.617-4.898-3.839-7.448c-1.128-2.354-4.767,0.535-4.019,2.534c0.748,2,1.316,4.085,2.513,7.334
		c1.273,3.454,2.64,7.965,2.64,7.965S564.133,152.922,565.898,151.897z"/>
	<path style="fill:#FFF2AB;" d="M564.495,230.936c0,0-4.561,8.59-3.007,17.712c1.554,9.121,13.63,16.242,13.63,16.242
		l-14.328,10.475l-20.137-0.16c0,0,9.813-5.399,7.148-19.97c-1.914-10.459-11.499-11.928-11.499-11.928L564.495,230.936z"/>
	<path style="fill:#A95E46;" d="M550.58,231.733c-0.682,0-1.306-0.455-1.49-1.144l-3.246-12.146c-0.22-0.824,0.269-1.67,1.093-1.89
		c0.821-0.216,1.669,0.269,1.89,1.092l3.247,12.146c0.22,0.824-0.269,1.67-1.093,1.89
		C550.846,231.716,550.712,231.733,550.58,231.733z"/>
	<path style="fill:#F85258;" d="M541.854,241.728c4.978,0.211,9.465,5.559,9.465,5.559s2.145-8.99,7.005-12.443
		c4.86-3.454,12.436-1.371,12.436-1.371s-5.4-13.272-13.683-12.12c-4.993,0.694-6.208,8.822-6.208,8.822s-4.604-4.762-10.393-2.175
		c-8.454,3.777-9.068,18.447-9.068,18.447S536.876,241.518,541.854,241.728z"/>
	<path style="fill:#F85258;" d="M552.556,270.324c4.818-3.675,6.495-8.731,6.495-8.731s4.208,3.631,8.935,3.227
		c4.728-0.404,7.358-6.468,7.358-6.468s7.62,12.514-1.579,19.539c-4.395,3.356-10.239,0.329-10.239,0.329s-3.675,5.257-10.237,5.999
		c-10.289,1.164-14.915-9.263-15.87-10.028C537.584,274.803,547.738,273.998,552.556,270.324z"/>
</g>
<g>
	<g>
		<path style="fill:#EDB824;" d="M287.29,663.615H158.448c-5.934,0-10.745-4.811-10.745-10.745v-20.924h150.332v20.924
			C298.035,658.805,293.224,663.615,287.29,663.615z"/>
		<path style="fill:#FECE3B;" d="M100.709,348.262l32.753,290.149c0.946,8.381,8.032,14.717,16.466,14.724l146.39,0.121
			c8.484,0.007,15.605-6.39,16.504-14.826l30.818-289.162L100.709,348.262z"/>
		<path style="fill:#EDB824;" d="M347.446,355.893H98.928c-7.586,0-13.736-6.15-13.736-13.736c0-7.586,6.15-13.736,13.736-13.736
			h248.518c7.586,0,13.736,6.15,13.736,13.736C361.182,349.743,355.032,355.893,347.446,355.893z"/>
		<path style="fill:#FECE3B;" d="M331.675,335.544h-217.74c-5.057,0-9.157-4.1-9.157-9.157c0-5.058,4.1-9.157,9.157-9.157h217.74
			c5.057,0,9.157,4.1,9.157,9.157C340.832,331.444,336.733,335.544,331.675,335.544z"/>
		<path style="fill:#FFFFFF;" d="M218.386,559.229h-19.081c-3.287,0-6.221-1.705-7.849-4.562c-1.627-2.857-1.599-6.25,0.077-9.077
			l7.922-13.368c0.823-1.391,2.617-1.849,4.008-1.025c1.39,0.823,1.849,2.617,1.025,4.007l-7.922,13.368
			c-0.851,1.437-0.302,2.716-0.027,3.199c0.275,0.483,1.096,1.608,2.766,1.608h19.081c1.616,0,2.925,1.309,2.925,2.925
			C221.311,557.92,220.001,559.229,218.386,559.229z"/>
		<path style="fill:#FFFFFF;" d="M246.434,559.229h-10.592c-1.616,0-2.925-1.309-2.925-2.925c0-1.616,1.309-2.925,2.925-2.925
			h10.592c1.665,0,2.486-1.119,2.762-1.601c0.276-0.482,0.826-1.756-0.016-3.193l-9.908-16.897c-0.817-1.394-0.35-3.186,1.044-4.003
			c1.392-0.82,3.186-0.351,4.003,1.043l9.908,16.897c1.658,2.828,1.675,6.216,0.046,9.061
			C252.643,557.531,249.712,559.229,246.434,559.229z"/>
		<path style="fill:#FFFFFF;" d="M207.582,527.167c-0.507,0-1.02-0.133-1.488-0.41c-1.39-0.823-1.849-2.618-1.025-4.007
			l10.153-17.133c1.644-2.774,4.548-4.428,7.771-4.428c3.253,0.007,6.158,1.676,7.794,4.463l8.458,14.423
			c0.817,1.394,0.35,3.186-1.044,4.003c-1.393,0.817-3.186,0.351-4.003-1.043l-8.457-14.423c-0.83-1.416-2.193-1.572-2.739-1.573
			c-0.558,0-1.912,0.155-2.746,1.56l-10.153,17.133C209.555,526.654,208.582,527.167,207.582,527.167z"/>
		<path style="fill:#FFFFFF;" d="M193.27,533.977l10.332-4.07c0.92-0.363,1.913,0.33,1.89,1.319l-0.251,10.677
			c-0.025,1.085-1.233,1.719-2.141,1.124l-10.082-6.607C192.08,535.806,192.226,534.389,193.27,533.977z"/>
		<path style="fill:#FFFFFF;" d="M240.726,513.773l-1.114,11.049c-0.099,0.984-1.17,1.549-2.038,1.076l-9.377-5.113
			c-0.953-0.519-0.963-1.883-0.019-2.418l10.49-5.937C239.645,511.878,240.838,512.657,240.726,513.773z"/>
		<path style="fill:#FFFFFF;" d="M235.3,563.43l-8.851-6.707c-0.788-0.597-0.713-1.805,0.144-2.3l9.249-5.34
			c0.94-0.543,2.11,0.159,2.074,1.243l-0.398,12.047C237.48,563.494,236.194,564.107,235.3,563.43z"/>
		<path style="fill:#EDB824;" d="M289.067,325.108H152.473c-1.335,0-2.417-1.082-2.417-2.417v-6.858c0-2.67,2.165-4.835,4.835-4.835
			H286.65c2.67,0,4.835,2.165,4.835,4.835v6.858C291.485,324.026,290.403,325.108,289.067,325.108z"/>
		<polygon style="opacity:0.25;fill:#EDB824;" points="103.324,371.43 100.709,348.262 343.64,346.178 340.134,382.163 		"/>
		<g>
			<g>
				<path style="fill:#FFFFFF;" d="M181.561,454.863c1.297-0.216,2.994-0.401,5.155-0.401c2.655,0,4.599,0.617,5.834,1.728
					c1.142,0.988,1.821,2.5,1.821,4.353c0,1.882-0.556,3.364-1.605,4.444c-1.42,1.512-3.735,2.284-6.358,2.284
					c-0.802,0-1.543-0.03-2.161-0.185v8.334h-2.685V454.863z M184.247,464.895c0.587,0.154,1.327,0.216,2.223,0.216
					c3.241,0,5.217-1.574,5.217-4.445c0-2.747-1.945-4.074-4.908-4.074c-1.173,0-2.068,0.092-2.531,0.216V464.895z"/>
				<path style="fill:#FFFFFF;" d="M200.298,468.877l-2.161,6.543h-2.778l7.068-20.804h3.241l7.1,20.804h-2.871l-2.223-6.543
					H200.298z M207.12,466.778l-2.037-5.989c-0.463-1.358-0.772-2.592-1.081-3.796h-0.061c-0.309,1.235-0.649,2.5-1.05,3.766
					l-2.037,6.019H207.12z"/>
				<path style="fill:#FFFFFF;" d="M217.368,454.863c1.297-0.216,2.994-0.401,5.155-0.401c2.655,0,4.6,0.617,5.834,1.728
					c1.142,0.988,1.821,2.5,1.821,4.353c0,1.882-0.556,3.364-1.605,4.444c-1.42,1.512-3.735,2.284-6.358,2.284
					c-0.802,0-1.543-0.03-2.161-0.185v8.334h-2.685V454.863z M220.053,464.895c0.587,0.154,1.327,0.216,2.223,0.216
					c3.241,0,5.216-1.574,5.216-4.445c0-2.747-1.945-4.074-4.908-4.074c-1.173,0-2.068,0.092-2.531,0.216V464.895z"/>
				<path style="fill:#FFFFFF;" d="M246.105,465.667h-8.087v7.501h9.013v2.253h-11.699v-20.804h11.235v2.253h-8.55v6.574h8.087
					V465.667z"/>
				<path style="fill:#FFFFFF;" d="M252.063,454.895c1.358-0.277,3.303-0.432,5.155-0.432c2.871,0,4.723,0.525,6.019,1.698
					c1.049,0.926,1.636,2.345,1.636,3.951c0,2.746-1.729,4.568-3.92,5.308v0.092c1.605,0.556,2.562,2.038,3.056,4.198
					c0.679,2.902,1.173,4.908,1.605,5.71h-2.778c-0.34-0.587-0.802-2.376-1.389-4.97c-0.617-2.871-1.728-3.951-4.167-4.043h-2.531
					v9.013h-2.685V454.895z M254.748,464.371h2.747c2.871,0,4.692-1.574,4.692-3.951c0-2.686-1.945-3.858-4.784-3.89
					c-1.296,0-2.223,0.124-2.655,0.247V464.371z"/>
			</g>
		</g>
	</g>
	<path style="fill:#FFC39E;" d="M207.537,136.306l3.759,109.967l-42.56,9.67c0,0-2.807,0.72-7.111,0.097
		c-4.305-0.622-10.105-2.586-10.105-2.586s6.466-5.272,10.626-12.096c4.159-6.824,5.991-15.192,5.991-15.192l-0.309-14.687
		l-2.993-41.49l-14.925-31.133c0,0,11.32-5.161,25.727-5.798C190.044,132.421,207.537,136.306,207.537,136.306z"/>
	<path style="fill:#FFE1D2;" d="M164.079,261.857l31.526,1.851l20.753-7.948l23.444,4.588l27.49-5.626l-6.198-70.257
		c0,0,4.22-13.755,6.754-31.467c2.534-17.712,3.381-39.381,3.381-39.381l-50.177,8.551l-46.722-7.399c0,0,3.689,23.464,2.881,46.38
		c-0.393,11.131-0.473,20.728-4.12,45.331C169.443,231.08,164.079,261.857,164.079,261.857z"/>
	<path style="fill:#B795AA;" d="M210.98,160.442c-1.545,0-2.986-0.462-4.392-0.912c-0.959-0.307-1.951-0.625-2.943-0.779
		c-1.12-0.172-2.375-0.102-3.59-0.036c-0.302,0.017-0.599,0.033-0.889,0.046c-0.41,0.016-0.833-0.02-1.244-0.057
		c-0.691-0.06-1.342-0.12-1.86,0.072c-0.266,0.1-0.563-0.038-0.661-0.303c-0.099-0.267,0.037-0.563,0.304-0.661
		c0.735-0.271,1.535-0.201,2.309-0.133c0.394,0.034,0.765,0.07,1.108,0.053c0.285-0.012,0.578-0.028,0.876-0.044
		c1.268-0.07,2.578-0.141,3.803,0.046c1.073,0.166,2.104,0.496,3.101,0.816c1.78,0.57,3.462,1.108,5.299,0.746
		c0.832-0.166,1.632-0.465,2.478-0.783c1.235-0.464,2.512-0.943,3.908-0.975c1.005-0.017,2.006,0.153,2.97,0.322
		c1.588,0.278,3.088,0.541,4.556-0.045c1.299-0.518,2.274-1.5,3.307-2.538c1.225-1.231,2.491-2.503,4.376-3.047
		c1.763-0.507,3.524-0.202,5.226,0.096c0.974,0.17,1.894,0.331,2.811,0.348c1.226,0.055,2.25-0.451,3.324-0.955
		c0.769-0.36,1.564-0.732,2.464-0.926c0.276-0.052,0.552,0.118,0.611,0.395c0.06,0.278-0.117,0.552-0.394,0.612
		c-0.786,0.169-1.495,0.501-2.244,0.852c-1.133,0.531-2.298,1.1-3.781,1.051c-0.996-0.019-1.998-0.194-2.968-0.363
		c-1.661-0.289-3.23-0.563-4.764-0.121c-1.629,0.469-2.747,1.594-3.931,2.783c-1.062,1.067-2.159,2.17-3.655,2.768
		c-1.741,0.696-3.457,0.394-5.116,0.102c-0.958-0.168-1.865-0.325-2.769-0.305c-1.221,0.027-2.362,0.455-3.57,0.908
		c-0.848,0.319-1.725,0.648-2.64,0.829C211.918,160.401,211.444,160.442,210.98,160.442z"/>
	<path style="fill:#B795AA;" d="M213.492,179.74c-0.24,0-0.486-0.013-0.74-0.041c-1.315-0.145-2.554-0.45-3.753-0.746
		c-1.938-0.477-3.768-0.927-5.849-0.732c-1.289,0.122-2.467,0.367-4.066,0.845c-0.059,0.017-0.331,0.055-0.662,0.093
		c-0.208,0.024-0.565,0.066-0.821,0.104c-0.092,0.105-0.22,0.164-0.384,0.146c-0.535-0.059-0.616-0.372-0.617-0.553
		c-0.002-0.52,0.326-0.559,1.703-0.718c0.238-0.027,0.438-0.049,0.51-0.064c1.643-0.492,2.878-0.749,4.24-0.877
		c2.253-0.214,4.255,0.28,6.191,0.758c1.167,0.287,2.373,0.584,3.62,0.721c1.855,0.204,3.262-0.533,4.752-1.315
		c1.239-0.651,2.521-1.323,4.101-1.462c1.35-0.122,2.617,0.192,3.842,0.493c1.12,0.275,2.178,0.548,3.298,0.492
		c1.314-0.05,2.469-0.511,3.693-1c0.868-0.347,1.766-0.705,2.739-0.915c1.477-0.316,2.821-0.114,4.121,0.082
		c1.06,0.16,2.06,0.313,3.125,0.195c0.284-0.039,0.536,0.173,0.567,0.455c0.031,0.282-0.173,0.537-0.456,0.568
		c-1.193,0.13-2.311-0.038-3.39-0.201c-1.264-0.191-2.458-0.373-3.75-0.092c-0.889,0.191-1.708,0.518-2.574,0.864
		c-1.25,0.498-2.543,1.015-4.034,1.073c-1.27,0.041-2.444-0.241-3.584-0.521c-1.194-0.294-2.325-0.573-3.505-0.468
		c-1.374,0.121-2.51,0.717-3.713,1.348C216.717,178.994,215.297,179.74,213.492,179.74z"/>
	<path style="fill:#B795AA;" d="M201.068,204.855c-0.189,0-0.371-0.105-0.461-0.284c-0.127-0.254-0.024-0.564,0.23-0.69
		c3.254-1.627,6.286-2.167,9.829-1.76c0.646,0.075,1.301,0.242,1.934,0.405c0.99,0.254,1.925,0.489,2.816,0.405
		c1.659-0.167,3.176-0.645,4.782-1.152c1.568-0.494,3.188-1.005,4.934-1.189c2.499-0.263,5.043,0.125,7.504,0.501
		c1.238,0.189,2.519,0.385,3.752,0.487c0.796,0.065,1.942,0.092,2.882-0.164c0.295-0.081,0.58-0.203,0.883-0.333
		c0.567-0.244,1.153-0.495,1.862-0.495c0.284,0,0.514,0.23,0.514,0.514c0,0.284-0.23,0.514-0.514,0.514
		c-0.497,0-0.963,0.2-1.456,0.412c-0.322,0.138-0.654,0.28-1.018,0.38c-1.085,0.296-2.36,0.27-3.238,0.196
		c-1.268-0.105-2.566-0.303-3.822-0.495c-2.395-0.367-4.87-0.743-7.24-0.495c-1.643,0.173-3.213,0.668-4.732,1.148
		c-1.585,0.499-3.223,1.017-4.989,1.193c-1.073,0.116-2.14-0.167-3.173-0.431c-0.628-0.161-1.22-0.313-1.797-0.379
		c-3.335-0.39-6.186,0.127-9.25,1.658C201.224,204.838,201.146,204.855,201.068,204.855z"/>
	<path style="fill:#B795AA;" d="M202.598,230.592c-0.519,0-0.817-0.173-0.887-0.515c-0.116-0.57,0.379-0.904,2.939-1.992
		c0.189-0.079,0.342-0.145,0.434-0.186c0.174-0.079,0.343-0.172,0.511-0.263c0.34-0.185,0.691-0.377,1.098-0.486
		c2.874-0.765,4.908-0.556,7.263-0.311c0.707,0.073,1.45,0.15,2.264,0.205c0.203,0.014,0.406,0.033,0.609,0.053
		c0.54,0.052,1.051,0.101,1.543,0.04c0.945-0.118,1.836-0.65,2.781-1.214c1.068-0.637,2.171-1.296,3.451-1.398
		c1.51-0.116,2.809,0.27,4.069,0.647c0.9,0.27,1.751,0.525,2.68,0.613c1.837,0.175,3.555-0.201,5.374-0.6
		c1.346-0.294,2.737-0.599,4.184-0.662c0.738-0.029,1.379,0.148,1.996,0.321c0.664,0.186,1.293,0.361,1.975,0.228
		c0.28-0.058,0.55,0.125,0.605,0.404c0.056,0.278-0.125,0.55-0.403,0.605c-0.924,0.187-1.703-0.034-2.455-0.246
		c-0.563-0.159-1.094-0.309-1.673-0.283c-1.357,0.058-2.705,0.354-4.008,0.639c-1.816,0.398-3.697,0.804-5.691,0.619
		c-1.03-0.098-1.969-0.38-2.878-0.652c-1.224-0.366-2.383-0.71-3.692-0.608c-1.041,0.083-1.996,0.653-3.006,1.256
		c-0.994,0.594-2.022,1.207-3.181,1.351c-0.606,0.076-1.197,0.018-1.77-0.037c-0.193-0.018-0.386-0.037-0.579-0.05
		c-0.826-0.056-1.581-0.135-2.3-0.209c-2.348-0.241-4.202-0.434-6.891,0.283c-0.288,0.076-0.572,0.231-0.872,0.395
		c-0.191,0.105-0.382,0.208-0.58,0.298c-0.097,0.043-0.257,0.111-0.456,0.196c-0.392,0.167-1.372,0.582-1.962,0.893
		c0.015,0.047,0.023,0.098,0.023,0.151C203.113,230.362,202.882,230.592,202.598,230.592z"/>
	<path style="fill:#FFE1D2;" d="M255.884,277.774l-12.294,8.071l7.448,10.596l11.332-0.607l-1.583,10.21l8.093,4.286
		c0,0,9.272-10.421,11.108-10.895c1.739-0.449,14.414,0.927,14.414,0.927l3.167-15.978l7.768-7.89l-9.225-12.611l-8.529,0.17
		l-9.747-12.419l-22.765,13.843L255.884,277.774z"/>
	<path style="opacity:0.46;fill:#F8AD7D;" d="M273.312,281.249c-3.799,0-12.589-2.15-15.525-2.898
		c-0.551-0.14-0.884-0.699-0.744-1.25c0.14-0.551,0.698-0.885,1.251-0.743c6.601,1.679,14.456,3.23,15.643,2.803
		c1.413-0.575,6.586-8.058,10.769-14.959c0.294-0.484,0.927-0.639,1.413-0.347c0.486,0.294,0.641,0.928,0.346,1.414
		c-1.48,2.442-9.002,14.678-11.756,15.799C274.402,281.194,273.921,281.249,273.312,281.249z"/>
	<path style="opacity:0.75;fill:#FFC39E;" d="M279.965,299.367c0.752-0.347,2.085-0.094,3.883,0.029
		c3.313,0.226,7.492,0.659,7.492,0.659s-10.905-9.331-12.84-8.349c-2.346,1.19-5.37,13.834-5.37,13.834
		S278.075,300.241,279.965,299.367z"/>
	<path style="opacity:0.75;fill:#FFC39E;" d="M297.607,284.271l5.945-5.879c0,0-7.594,0.57-9.499,4.008
		c-1.905,3.438,1.876,9.879,1.876,9.879L297.607,284.271z"/>
</g>
</svg>
