<?xml version="1.0" encoding="utf-8"?>
<!-- Generator: Adobe Illustrator 27.5.0, SVG Export Plug-In . SVG Version: 6.00 Build 0)  -->
<svg version="1.1" xmlns="http://www.w3.org/2000/svg" xmlns:xlink="http://www.w3.org/1999/xlink" x="0px" y="0px"
	 viewBox="0 0 1122 800" style="enable-background:new 0 0 1122 800;" xml:space="preserve">
<g id="background">
	<rect x="0" style="fill:#FFFFFF;" width="1122" height="800"/>
</g>
<g id="object">
	<path style="opacity:0.16;fill:#485C82;" d="M1079.212,602.366c0.366-0.646,0.723-1.299,1.069-1.959
		c18.811-35.781-12.651-49.236-42.065-56.175c-57.454-13.553-114.504-21.106-173.459-23.22c-19.667-0.705-39.336-1.34-59.007-1.941
		c-80.65-4.074-161.866-8.44-242.457-7.731c-38.095,0.336-76.537-4.527-114.74-4.799c-38.285-0.273-76.595,0.935-114.75,4.169
		c-53.72,4.553-108.699,13.104-161.311,27.495c-34.083,9.323-109.3,20.377-101.827,70.509c2.584,17.332,15.23,31.999,30.526,40.548
		c21.51,12.021,46.663,13.137,70.664,14.396c28.909,1.516,57.83,2.804,86.759,3.866c126.989,4.659,254.59,7.306,381.659,5.037
		c9.138-0.121,18.276-0.267,27.413-0.44c56.803-1.078,115.152-3.927,172.498-6.896c54.204-2.806,109.943-4.156,163.118-15.833
		C1032.838,642.906,1063.65,629.834,1079.212,602.366z"/>
	<g>
		<g>
			<path style="fill:#E9DCD4;" d="M812.418,275.789c3.234-1.184,6.414-2.519,9.412-3.514c7.482-2.484,14.88-5.348,21.719-9.382
				c3.297-1.945,6.883-4.941,6.672-8.585c-0.168-2.89-2.859-4.888-5.697-5.308c-2.838-0.42-5.811,0.371-8.7,1.077
				c-7.936,1.941-15.999,3.337-23.909,5.385c-6.654,1.722-14.899,3.226-19.129,9.499c-1.56,2.313-2.286,5.452-1.263,8.176
				c1.415,3.77,5.676,5.567,9.428,5.401C804.707,278.372,808.6,277.186,812.418,275.789z"/>
			<g>
				<path style="fill:#E9DCD4;" d="M837.247,202.633c-0.114-0.195-0.221-0.395-0.312-0.602c-0.373-0.847-0.427-1.965,0.23-2.559
					c2.141-1.932,4.633,3.801,5.08-0.625c0.122-1.208-2.727-8.095-2.172-8.576c2.83-2.458,7.932-2.071,9.554,1.736
					c1.098,2.577,0.939,5.775,0.721,8.412c-0.269,3.247-1.175,6.488-1.357,9.717c-0.151,2.673,0.597,5.249,1.079,7.942
					c2.118,11.827,5.134,25.193,0.959,36.549c-1.277,3.474-2.486,4.686-5.772,4.646c-3.196-0.039-6.699-0.856-8.602-3.978
					c-1.756-2.881-1.403-6.553-0.982-9.885c0.635-5.029,0.908-10.302,1.818-15.221c0.865-4.68,2.944-8.875,3.018-13.774
					c0.049-3.228-0.873-9.072-2.194-11.98C838.024,203.798,837.599,203.236,837.247,202.633z"/>
			</g>
		</g>
		<path style="fill:#3D6A82;" d="M789.745,288.412c0.127,0.086,0.254,0.173,0.382,0.258c4.294,2.902,9.013,5.926,14.185,5.598
			c7.302-0.464,11.378-8.615,10.717-15.134c-0.331-3.264-1.45-6.334-2.323-9.459c-0.64-2.292-1.15-4.627-1.659-6.961
			c-0.838-3.839-1.441-14.834-7.38-12.592c-2.976,1.124-5.445,3.401-8.245,4.459c-4.057,1.534-7.018,2.013-9.225,6.434
			c-1.882,3.771-2.168,8.111-2.42,12.318c-0.242,4.046-0.375,8.477,2.072,11.708C786.891,286.416,788.314,287.439,789.745,288.412z"
			/>
	</g>
	<g>
		<g>
			<path style="fill:#81623B;" d="M211.979,286.823c-0.172,0.185-0.348,0.377-0.456,0.596c-1.009,2.039-0.314,3.706-0.725,5.936
				c-0.183,0.994-2.587,1.987-1.052,3.437c0.566,0.535,2.141,1.652,3.36,2.781c1.777,1.647,3.035,4.809,3.57,7.503
				c2.102,10.587,1.265,21.453,0.099,32.175c-0.067,0.611-0.145,1.248-0.486,1.76c-0.61,0.916-1.832,1.144-2.92,1.315
				c-5.044,0.791-10.014,2.051-14.825,3.76c-4.293,1.525-8.562,3.475-11.778,6.701c-3.216,3.226-5.227,7.951-4.224,12.395
				c0.751,3.328,3.205,6.223,6.366,7.508c7.837,3.186,16.566-5.563,22.563-9.64c5.673-3.857,11.076-8.112,16.155-12.725
				c0.627-0.57,1.265-1.166,1.618-1.936c0.376-0.821,0.39-1.755,0.395-2.657c0.062-11.625-0.903-23.189-2.107-34.793
				c-0.331-3.189-2.296-5.799-2.576-8.75c-0.178-1.883,1.037-3.49,1.262-5.304c0.223-1.795,0.057-4.209-0.397-5.958
				c-0.897-3.45-4.317-4.812-7.188-6.297c-0.715-0.37-1.197-0.622-1.951-0.615c-1.227,0.011-2.166,0.742-3.124,1.434
				C212.991,285.857,212.453,286.313,211.979,286.823z"/>
		</g>
		<g>
			<path style="fill:#514776;" d="M214.028,368.482c5.94-4.569,11.509-9.763,15.879-15.104c1.107-1.352,2.185-2.797,2.629-4.487
				c0.368-1.4,0.274-2.875,0.178-4.32c-0.559-8.41-1.119-16.819-1.678-25.229c-0.052-0.783,0.111-3.398-0.588-3.865
				c-0.351-0.235-1.764,0.169-2.207,0.197c-0.801,0.05-1.605,0.054-2.408,0.045c-3.191-0.039-6.449-0.395-9.578,0.425
				c-0.191,0.05-0.393,0.113-0.516,0.267c-0.112,0.141-0.134,0.332-0.152,0.511c-0.619,6.159-1.644,12.278-3.067,18.303
				c-0.324,1.374-0.734,2.899-1.734,3.95c-1.059,1.113-2.979,1.64-4.351,2.309c-2.824,1.376-5.786,2.453-8.791,3.362
				c-6.164,1.863-12.51,3.017-18.794,4.385c-2.454,0.534-5.648,0.802-7.902,1.929c-6.808,1.931-13.848,3.983-19.226,8.582
				c-11.485,9.819-5.288,28.72,10.342,28.469c13.265-0.214,26.519-4.172,38.089-10.578
				C204.751,375.087,209.497,371.967,214.028,368.482z"/>
		</g>
	</g>
	<g>
		<g>
			<g>
				<path style="fill:#E1CBAD;" d="M656.563,247.317c1.828-1.826,2.744-3.302,3.896-6.235c1.685-4.359,1.65-6.709,6.048-6.231
					c1.598,0.174,2.672,0.965,4.406,0.902c1.842-0.067,3.354-2.106,5.02-0.098c0.457,0.551,0.747,1.22,0.933,1.911
					c0.72,2.672,1.53,5.427,0.792,8.213c-0.387,1.459-1.265,2.779-2.57,3.538c-3.092,1.799-7.311,1.044-10.011,3.788
					c-1.482,1.505-3.169,2.807-5.001,3.859c-0.238,0.136-0.493,0.272-0.767,0.261c-0.488-0.021-0.821-0.484-1.078-0.9
					c-1.13-1.834-2.245-3.678-3.347-5.529c-0.229-0.384-0.465-0.816-0.374-1.253c0.078-0.373,0.376-0.654,0.658-0.91
					C655.689,248.162,656.149,247.73,656.563,247.317z"/>
			</g>
			<g>
				<path style="fill:#A2676D;" d="M604.342,262.138l20.611,5.561c0.04,0.011,0.083,0.003,0.117-0.02l30.869-21.703
					c0.069-0.049,0.165-0.025,0.204,0.05l5.366,10.345c0.027,0.051,0.019,0.114-0.02,0.157l-30.38,34.185
					c-0.022,0.025-0.053,0.042-0.087,0.046l-35.431,4.534c-0.066,0.008-0.128-0.031-0.15-0.093l-5.896-17.261
					C586.371,268.647,594.862,259.58,604.342,262.138z"/>
			</g>
		</g>
		<g>
			<g>
				<g>
					<polygon style="fill:#363636;" points="629.51,415.279 629.51,526.138 612.777,526.138 602.318,459.204 592.906,407.958 					
						"/>
				</g>
				<g>
					<polygon style="fill:#363636;" points="629.51,526.138 638.923,535.551 634.74,541.826 615.914,535.551 615.914,526.138 					
						"/>
				</g>
			</g>
			<g>
				<g>
					<polygon style="fill:#363636;" points="563.821,528.009 567.307,541.78 578.812,545.963 585.087,542.825 575.346,527.289 					
						"/>
				</g>
				<g>
					<polygon style="fill:#363636;" points="592.906,403.775 586.631,451.883 578.264,529.276 561.53,528.23 561.53,468.617 
						553.164,407.958 					"/>
				</g>
			</g>
			<g>
				<path style="fill:#A2676D;" d="M601.378,247.394c1.055,0.476,2.053,1.04,2.982,1.699c12.592,8.932,24.763,23.894,27.422,40.033
					c3.458,20.991,8.667,41.871,12.482,62.897c4.292,23.659,6.871,47.456,9.107,71.348c-21.214,1.927-42.495,3.034-63.785,3.316
					c-16.495,0.219-33.245-0.095-49.064-5.062c3.206-13.611,2-27.536,2.19-41.421c0.17-12.457,0.731-24.915,1.889-37.314
					c2.309-24.73,5.16-61.289,17.522-82.85C568.69,248.59,588.951,241.792,601.378,247.394z"/>
			</g>
			<g>
				<g>
					<g>
						<path style="fill:#E1CBAD;" d="M616.441,211.565c-2.727-23.985-32.535-22.075-42.413-3.545
							c-3.691,6.923-4.689,15.95-2.958,23.567c0.848,3.73,2.47,7.434,5.348,10.046c1.259,1.143,3.83,1.74,4.812,2.884
							c1.632,1.9,0.955,5.802,0.639,8.167c2.985,2.116,6.99,1.834,10.627,1.433c0.492-0.054,1.018-0.124,1.386-0.454
							c0.295-0.265,0.439-0.656,0.563-1.032c0.934-2.821,0.63-3.587,3.219-4.691c2.459-1.05,4.968-1.199,7.357-2.698
							c4.461-2.799,7.775-7.309,9.625-12.196C617.213,226.26,617.261,218.772,616.441,211.565z"/>
					</g>
				</g>
				<g>
					<path style="fill:#2F2A26;" d="M603.289,200.033c0,0-19.396-3.083-22.506,4.221c-4.676,10.98-8.544,18.037-10.594,24.878
						l-9.287-12.636l1.406-23.561c0,0,8.615-16.177,18.624-15.366c10.009,0.811,29.513,5.666,29.513,5.666l12.011,10.292
						l10.536,3.624l-16.599,29.171C616.391,226.321,621.224,202.493,603.289,200.033z"/>
				</g>
			</g>
		</g>
	</g>
	<g>
		<g>
			<path style="fill:#D1943E;" d="M753.322,206.902c-0.172,2.121-0.149,4.392-0.103,6.511c0.052,2.397,0.933,4.746,0.444,7.153
				c-0.312,1.536-1.151,2.904-1.751,4.351c-1.925,4.641-1.232,10.27,1.761,14.306c1.028,1.386,2.301,2.59,3.196,4.065
				c1.49,2.459,1.76,5.358,2.27,8.124c0.54,2.932,1.97,5.056,2.847,7.789c1.243,3.878,0.923,8.088,0.157,12.088
				c-0.178,0.93-0.378,1.897-0.128,2.811c0.376,1.374,1.767,1.797,3.047,1.837c15.672,0.486,31.194-1.734,46.651-3.949
				c-1.214,0.174-1.297-11.155-1.222-12.065c0.377-4.543,1.248-9.045,2.599-13.4c0.697-2.247,1.531-4.525,1.41-6.876
				c-0.172-3.336-2.255-6.634-1.266-9.824c0.881-2.842,3.4-5.044,3.496-8.191c0.107-3.505-2.516-6.986-4.555-9.593
				c-1.68-2.149-3.505-4.292-4.655-6.79c-0.98-2.129-1.008-4.145-2.245-6.169c-2.531-4.139-6.296-7.623-10.406-10.154
				c-1.542-0.95-3.168-1.793-4.916-2.266c-2.082-0.563-4.275-0.584-6.427-0.431c-4.881,0.346-9.601,1.544-14.353,2.425
				c-4.991,0.925-9.688,4.339-12.486,8.503C754.749,200.044,753.603,203.44,753.322,206.902z"/>
			<g>
				<path style="fill:#E9DCD4;" d="M812.04,216.244c-1.095-1.506-3.067-2.399-4.885-1.995c-0.967,0.215-1.708,0.633-2.273,1.191
					c-0.688-3.042-1.699-6.018-3.039-8.858c-0.903-1.913-1.956-3.796-3.479-5.263c-1.329-1.281-2.97-2.197-4.668-2.921
					c-5.774-2.46-12.44-2.758-18.411-0.823c-8.39,2.719-12.977,8.011-14.678,15.196c-0.585,2.471-0.829,5.166-0.768,8.057
					c0.002,0.119,0.007,0.241,0.01,0.36c-0.536-0.182-1.14-0.266-1.82-0.23c-1.859,0.098-3.52,1.488-4.171,3.232
					c-0.651,1.745-0.369,3.756,0.52,5.392c0.889,1.636,2.336,2.919,3.948,3.851c0.981,0.566,2.098,1.012,3.211,0.989
					c1.667,6.549,4.818,12.669,10.568,15.892c3.968,2.224,4.096,3.279,4.681,8.027c0.301,2.442,1.112,5.133,3.288,6.282
					c1.146,0.606,2.495,0.676,3.791,0.663c1.772-0.018,3.542-0.166,5.292-0.443c1.346-0.213,2.766-0.548,3.713-1.528
					c1.463-1.513,1.266-3.925,0.952-6.006c-0.862-5.703-0.721-5.008,3.169-8.385c2.531-2.197,4.319-4.996,5.648-8.051
					c1.77-4.069,2.809-8.365,3.163-12.706c0.27,0.098,0.564,0.127,0.853,0.113c1.381-0.065,2.591-0.945,3.559-1.933
					c1.303-1.33,2.354-2.954,2.771-4.768C813.403,219.763,813.135,217.75,812.04,216.244z"/>
				<g>
					<g>
						<path style="fill:#6C4E28;" d="M770.025,228.637c-0.456,0.038-0.398,0.746,0.058,0.709
							C770.539,229.308,770.482,228.6,770.025,228.637z"/>
						<path style="fill:#6C4E28;" d="M767.502,232.65c-0.456,0.037-0.398,0.746,0.058,0.708
							C768.016,233.321,767.959,232.613,767.502,232.65z"/>
						<path style="fill:#6C4E28;" d="M776.754,230.936c0.003,0.039,0.006,0.079,0.01,0.118c0.038,0.456,0.746,0.398,0.708-0.058
							c-0.003-0.039-0.006-0.079-0.01-0.118C777.425,230.422,776.716,230.48,776.754,230.936z"/>
						<path style="fill:#6C4E28;" d="M783.536,228.119c-0.456,0.038-0.398,0.746,0.058,0.709
							C784.051,228.79,783.993,228.081,783.536,228.119z"/>
						<path style="fill:#6C4E28;" d="M786.458,228.948c-0.456,0.038-0.398,0.746,0.058,0.708
							C786.973,229.619,786.915,228.91,786.458,228.948z"/>
						<path style="fill:#6C4E28;" d="M796.89,228.564c0.003,0.039,0.006,0.079,0.01,0.118c0.038,0.456,0.746,0.398,0.709-0.058
							c-0.003-0.039-0.006-0.079-0.01-0.118C797.561,228.05,796.852,228.107,796.89,228.564z"/>
						<path style="fill:#6C4E28;" d="M800.209,225.556c-0.456,0.038-0.398,0.746,0.058,0.709
							C800.723,226.227,800.666,225.518,800.209,225.556z"/>
						<path style="fill:#6C4E28;" d="M794.875,225.758c-0.456,0.038-0.398,0.746,0.058,0.708
							C795.389,226.429,795.332,225.72,794.875,225.758z"/>
						<path style="fill:#6C4E28;" d="M793.151,227.921c-0.456,0.038-0.398,0.746,0.058,0.709
							C793.665,228.592,793.607,227.883,793.151,227.921z"/>
						<path style="fill:#6C4E28;" d="M797.748,225.996c-0.04,0.003-0.079,0.007-0.118,0.01c-0.456,0.038-0.398,0.746,0.058,0.709
							c0.039-0.003,0.079-0.007,0.118-0.01C798.262,226.667,798.205,225.959,797.748,225.996z"/>
						<path style="fill:#6C4E28;" d="M770.967,231.413c-0.039,0.003-0.079,0.007-0.118,0.01c-0.279,0.023-0.364,0.296-0.285,0.497
							c-0.041,0.12-0.023,0.258,0.103,0.365c0.043,0.036,0.085,0.072,0.128,0.108c0.326,0.276,0.739-0.174,0.511-0.477
							C771.396,231.698,771.274,231.388,770.967,231.413z"/>
						<path style="fill:#6C4E28;" d="M767.642,230.023c-0.456,0.038-0.398,0.746,0.058,0.709
							C768.156,230.694,768.099,229.985,767.642,230.023z"/>
						<path style="fill:#6C4E28;" d="M777.997,227.267c0.003,0.039,0.007,0.079,0.01,0.118c0.038,0.456,0.746,0.398,0.709-0.058
							c-0.003-0.04-0.006-0.079-0.01-0.118C778.668,226.753,777.959,226.81,777.997,227.267z"/>
					</g>
					<path style="opacity:0.1;fill:#D592C1;" d="M779.531,230.497c0.011-0.091,0.017-0.183,0.017-0.278
						c-0.004-1.079-0.865-2.009-1.865-2.413c-1-0.405-2.116-0.387-3.193-0.322c-1.73,0.105-3.454,0.315-5.158,0.631
						c-1.28,0.237-2.569,0.54-3.703,1.179c-1.134,0.639-2.108,1.658-2.432,2.919c-0.339,1.319,0.246,3.163,1.589,3.703
						c1.736,0.698,4.212-0.507,5.827-1.067c2.052-0.712,4.216-0.67,6.287-1.616C778.102,232.682,779.371,231.768,779.531,230.497z"
						/>
					<path style="opacity:0.1;fill:#D592C1;" d="M803.036,229.044c0.034-0.085,0.063-0.173,0.086-0.265
						c0.266-1.046-0.335-2.161-1.203-2.803c-0.867-0.642-1.952-0.903-3.011-1.109c-1.701-0.331-3.423-0.558-5.152-0.679
						c-1.298-0.091-2.623-0.119-3.88,0.215c-1.555,0.414-4.017,1.872-3.362,3.677c0.127,0.351,0.316,0.678,0.551,0.968
						c0.637,0.786,1.588,1.267,2.568,1.516c0.98,0.249,2,0.286,3.011,0.322c2.376,0.084,4.8,0.47,7.161,0.148
						C801.106,230.803,802.564,230.234,803.036,229.044z"/>
				</g>
				<path style="fill:#D69E57;" d="M794.512,207.155c0.459,1.152,0.927,2.358,1.815,3.49c2.012,2.564,4.896,4.402,6.606,7.176
					c2.212,3.589,2.09,8.109,1.633,12.3c-0.401,3.674-1.003,7.328-1.807,10.935c-0.307,1.378-0.845,2.648-0.398,4.038
					c0.365,1.136,1.443,1.854,1.903,2.945c1.614,3.825-2.777,8.835-6.105,10.38c3.846,4.051,8.968,6.872,14.448,7.958
					c2.328,0.461,4.566-8.482,4.96-9.855c1.306-4.547,1.107-9.315-1.004-13.619c-1.275-2.6-3.141-4.866-4.547-7.398
					c-2.084-3.753-3.119-8.081-2.958-12.371c0.097-2.602,0.624-5.21,0.289-7.792c-0.233-1.796-0.875-3.511-1.533-5.198
					c-1.969-5.049-4.19-10.128-7.831-14.141c-3.425-3.774-9.13-7.338-14.361-5.892c-2.924,0.809-5.641,2.459-7.491,4.889
					c-1.173,1.54-4.521,5.936-0.554,6.521c2.137,0.315,4.312,0.147,6.472,0.102c2.16-0.045,4.373,0.045,6.383,0.838
					C793.016,203.482,793.751,205.243,794.512,207.155z"/>
				<path style="fill:#D69E57;" d="M771.167,204.962c-2.95,1.092-7.885,2.821-7.88,6.479c0.005,3.72,2.365,6.961,1.626,10.948
					c-0.372,2.01-1.579,3.747-2.501,5.571c-1.533,3.035-2.279,6.756-0.77,9.802c1.546,3.12,5.131,4.926,6.406,8.166
					c1.373,3.489-0.361,7.482,0.389,11.155c0.636,3.115,0.501,5.001-2.702,6.539c-1.625,0.78-3.367,1.56-4.567,2.97
					c-0.333,0.392-2.38,4.978-1.183,5.072c-3.45-0.27-7.479-0.9-9.099-3.958c-0.878-1.657-0.785-3.699-0.132-5.457
					c0.653-1.757,1.812-3.278,3.028-4.705c0.699-0.821,1.437-1.644,1.83-2.649c0.786-2.014,0.022-4.299-1.032-6.187
					c-1.053-1.888-2.415-3.657-2.933-5.756c-1.569-6.353,4.279-10.387,6.041-15.827c2.601-8.031-5.119-16.553-3.018-24.729
					c0.654-2.547,2.213-4.758,3.841-6.823c2.502-3.174,5.496-6.313,9.43-7.241c5.047-1.19,9.691,2.672,12.415,6.434
					c0.719,0.993,1.385,2.042,1.969,3.12c1.032,1.904,1.333,1.863-0.318,3.015c-2.757,1.924-7.361,2.756-10.526,3.941
					C771.38,204.883,771.274,204.922,771.167,204.962z"/>
			</g>
		</g>
		<g>
			<g>
				<polygon style="fill:#E9DCD4;" points="779.831,429.96 778.258,456.788 762.904,520.181 751.333,517.322 758.011,454.483 
					751.018,426.781 				"/>
			</g>
			<g>
				<path style="fill:#363636;" d="M764.203,518.729c-0.573,1.875-1.019,4.05-0.14,5.581c0.96,1.673,3.079,2.301,3.649,4.36
					c0.239,0.862,0.093,1.783-0.14,2.647c-0.174,0.646-0.41,1.304-0.884,1.777c-0.783,0.782-2,0.874-3.106,0.919
					c-1.716,0.07-3.456,0.138-5.132-0.241c-2.885-0.654-5.246-2.554-7.316-4.576c-1.755-1.714-3.624-3.121-3.269-5.922
					c0.106-0.838,0.474-1.616,0.797-2.396c0.846-2.048,1.404-4.214,1.653-6.416c4.844,0.77,9.687,1.539,14.531,2.309
					C764.657,517.345,764.421,518.015,764.203,518.729z"/>
			</g>
		</g>
		<g>
			<g>
				<polygon style="fill:#E9DCD4;" points="807.885,432.365 807.788,459.239 795.939,523.38 784.228,521.161 787.445,458.05 
					778.941,430.774 				"/>
			</g>
			<g>
				<path style="fill:#363636;" d="M797.156,521.858c-0.469,1.904-0.795,4.1,0.167,5.581c1.051,1.618,3.201,2.128,3.883,4.153
					c0.286,0.847,0.19,1.775,0.006,2.65c-0.138,0.655-0.338,1.325-0.785,1.823c-0.739,0.824-1.95,0.982-3.051,1.088
					c-1.71,0.164-3.444,0.328-5.137,0.041c-2.917-0.494-5.378-2.262-7.557-4.167c-1.846-1.615-3.79-2.918-3.589-5.734
					c0.06-0.843,0.385-1.64,0.664-2.437c0.732-2.091,1.171-4.285,1.298-6.497c4.879,0.503,9.757,1.005,14.636,1.508
					C797.534,520.452,797.334,521.134,797.156,521.858z"/>
			</g>
		</g>
		<g>
			<path style="fill:#3D6A82;" d="M768.769,263.919c-12.38,60.09-31.759,111.598-56.51,153.667
				c5.845,0.548,9.827,6.883,14.21,11.284c4.16,4.178,9.386,6.98,14.706,8.83c22.868,7.954,46.879-0.964,70.184,2.682
				c5.73,0.896,11.395,2.558,17.146,2.457c11.545-0.203,22.649-4.3,33.293-8.213c0.7-0.257,10.007-3.204,9.715-3.95
				c-7.949-20.305-15.898-40.61-23.847-60.915c-4.313-11.017-8.631-22.049-11.99-33.367c-3.809-12.835-6.362-25.972-8.578-39.135
				c-1.93-11.464-2.312-23.202-10.149-32.797c-2.905-3.556-7.232-6.42-11.961-7.061c-4.707-0.638-10.316,1.214-15.014,1.87
				C787.683,259.592,769.167,260.929,768.769,263.919z"/>
		</g>
	</g>
	<g>
		<g>
			<path style="fill:#E1CBA1;" d="M366.476,197.453c0.189-0.146,0.371-0.3,0.54-0.468c0.688-0.684,1.12-1.766,0.605-2.618
				c-1.679-2.776-6.298,1.869-5.304-2.681c0.271-1.241,5.662-6.88,5.221-7.58c-2.25-3.576-7.916-5.266-10.948-2.169
				c-2.052,2.097-2.947,5.317-3.591,8.008c-0.999,4.177-1.358,8.506-2.516,12.641c-0.107,0.381-0.218,0.793-0.061,1.167
				c0.151,0.358,0.512,0.594,0.854,0.807c2.482,1.548,6.218,4.279,9.119,2.121c0.405-0.303,0.625-0.772,0.831-1.223
				c0.592-1.295,1.184-2.591,1.776-3.886c0.453-0.992,0.922-2.007,1.714-2.776C365.244,198.286,365.894,197.904,366.476,197.453z"/>
			<path style="fill:#D1E2E9;" d="M336.855,238.54c0.711-1.828,1.509-3.775,2.276-6.012c0.924-2.696,9.42-32.918,9.471-32.902
				c1.008,0.31,15.902,5.249,16.173,4.206c-2.177,8.396-4.354,16.791-6.531,25.187c-3.801,14.658-2.911,26.96,9.658,36.152
				c4.985,3.646,10.548,6.365,15.813,9.571c0.839,0.511,1.704,1.068,2.195,1.934c0.825,1.455,0.363,3.302-0.144,4.916
				c-3.235,10.291-7.484,20.256-12.659,29.69c-1.568,2.859-6.165,12.815-9.271,13.201c-0.195-6.112-2.21-11.258-5.291-16.627
				C348.07,289.607,328.308,260.537,336.855,238.54z"/>
		</g>
		<g>
			<path style="fill:#D1E2E9;" d="M475.658,304.738c8.064-10.114,14.952-21.167,20.471-32.867
				c-3.37-2.649-11.425-9.983-15.817-10.097c-4.001-0.104-7.861,5.949-10.825,8.225c-4.163,3.198-8.412,6.284-12.741,9.254
				c-1.843,1.265-3.787,2.542-6.001,2.846c-4.177,0.573-8.325-1.846-11.923-3.606c-4.149-2.03-8.419-3.219-12.682-4.95
				c-1.641-0.665-3.413-1.343-5.139-0.945c-4,0.922-4.586,6.311-4.254,10.402c0.674,8.289,1.481,16.567,2.422,24.83
				c0.091,0.796,0.201,1.638,0.701,2.265c0.713,0.894,1.978,1.076,3.116,1.191c11.844,1.2,23.681,2.356,35.495,3.82
				c2.073,0.257,4.214,0.509,6.222-0.069c2.743-0.79,4.814-2.996,6.682-5.154C472.842,308.198,474.268,306.482,475.658,304.738z"/>
		</g>
		<g>
			<g>
				<path style="fill:#D1E2E9;" d="M399.097,267.753c-3.392-0.129-6.86-0.13-10.081,0.958c-4.324,1.46-7.821,4.767-10.615,8.423
					c-6.594,8.627-9.883,19.345-12.572,29.921c-3.29,12.939-5.881,26.062-7.756,39.29c-2.314,16.329-3.524,33.071-0.331,49.246
					c0.223,1.128,0.495,2.309,1.262,3.156c0.898,0.992,2.288,1.324,3.596,1.547c5.265,0.899,10.638,0.849,15.976,0.782
					c20.107-0.253,40.211-0.72,60.308-1.402c1.166-0.039,2.416-0.109,3.341-0.83c1.247-0.972,1.472-2.761,1.582-4.354
					c0.937-13.632,0.714-27.347-0.665-40.941c-1.129-11.129-3.029-22.161-4.928-33.181c-1.469-8.527-2.938-17.054-4.407-25.581
					c-0.933-5.415-1.909-10.955-4.603-15.723C423.086,268.233,409.925,268.164,399.097,267.753z"/>
				<path style="fill:#485C82;" d="M438.737,366.909c-3.532-7.779-5.003-15.175-6.979-23.491
					c-0.589-2.481-5.154-27.424-6.096-27.477c-0.443-0.032-0.887-0.057-1.331-0.088c-1.457-14.372-2.417-28.793-2.865-43.232
					c-0.074-2.392,1.1-2.095-0.63-3.813c-0.518-0.514-6.378-1.531-6.379-1.46c-0.336,15.964-0.673,31.928-1.009,47.891
					c-6.975-0.296-13.956-0.41-20.936-0.337c-0.332-15.76-0.664-31.52-0.996-47.281c-0.001-0.07-5.862,0.946-6.379,1.46
					c-1.73,1.717-0.556,1.42-0.63,3.813c-0.438,14.117-1.368,28.217-2.77,42.271c-0.258,0.01-0.516,0.015-0.773,0.025
					c-0.812,0.032-1.688,0.095-2.318,0.714c-0.695,0.682-0.896,1.842-1.057,2.906c-1.707,11.241-3.805,22.652-7.058,33.561
					c-3.089,10.36-7.939,19.433-9.059,30.463c14.155,4.543,29.053,6.063,43.855,6.414c7.454,0.177,14.957-0.415,22.395-0.139
					c5.756,0.213,9.917,12.19,12.377,5.543C442.04,389.404,441.05,372.004,438.737,366.909z"/>
			</g>
			<g>
				<g>
					<path style="fill:#202020;" d="M417.289,204.573c-4.329-1.618-9.036-2.332-13.676-2.576c-3.932-0.207-7.926-0.097-11.724,0.942
						c-6.136,1.679-11.552,5.849-14.743,11.352c-3.737,6.444-4.346,14.184-4.594,21.629c-0.185,5.531-0.219,11.092,0.449,16.594
						c0.321,2.639,0.701,5.42,1.508,7.961c0.715,2.253,2.142,2.549,4.364,3.302c10.604,3.593,22.061,3.627,33.097,2.645
						c3.628-0.323,7.521-0.456,10.599-2.439c3.651-2.352,7.708-4.175,11.5-6.309c0.806-0.453,1.637-0.929,2.177-1.68
						c0.632-0.878,0.776-2.006,0.891-3.081c0.89-8.324,1.205-16.838-0.75-24.978c-1.955-8.14-6.408-15.942-13.417-20.519
						C421.185,206.249,419.277,205.316,417.289,204.573z"/>
					<g>
						<path style="fill:#E1CBA1;" d="M427.216,236.826c0.402-1.536,0.24-3.206-0.085-4.781c-0.425-2.061-2.603-6.176-4.843-3.855
							c-0.117,0.121-0.212,0.28-0.297,0.454c-0.1-0.297-0.2-0.594-0.294-0.898c-1.007-3.248-1.146-6.767-2.78-9.777
							c-1.095-2.017-2.795-3.673-4.5-5.267c-1.118-1.045-2.271-2.093-3.673-2.765c-5.382-2.581-11.913-2.148-17.306,0.196
							c-3.504,1.522-6.617,4.414-8.385,7.812c-0.403,0.775-4.778,10.133-2.843,10.276c-3.171-0.235-4.736,1.719-5.11,4.825
							c-0.193,1.597-0.215,3.274,0.313,4.771c0.5,1.415,1.584,2.621,2.88,2.856c-0.417,2.638-0.439,5.289,0.476,8.035
							c1.461,4.384,4.591,8.364,9.173,10.168c2.309,0.909,4.925,2.448,6.09,4.743c0.632,1.246,0.906,2.64,1.134,4.019
							c0.17,1.026,0.339,2.105,0.976,2.927c1.109,1.43,3.177,1.575,4.987,1.599c2.204,0.029,4.757-0.106,6.072-1.876
							c1.169-1.574,0.834-3.777,1.404-5.653c1.103-3.625,5.513-5.963,8.235-8.325c3.167-2.747,5.526-6.41,6.52-10.498
							c0.569-2.342,0.56-4.427,0.232-6.406C426.362,238.817,426.944,237.864,427.216,236.826z"/>
					</g>
					<path style="fill:#202020;" d="M386.708,222.049c0.021,0.231,0.05,0.48,0.211,0.647c0.325,0.337,0.884,0.102,1.287-0.137
						c6.908-4.087,15.339-4.366,23.364-4.528c2.202-0.044,4.816,0.124,5.966,2.003c0.324-2.669,0.647-5.338,0.971-8.006
						c0.091-0.748,0.163-1.574-0.273-2.188c-0.31-0.437-0.819-0.678-1.311-0.889c-6.621-2.842-14.067-3.411-21.214-2.497
						c-3.349,0.428-7.575,1.593-9.214,4.93C385.064,214.296,386.432,219.003,386.708,222.049z"/>
					<path style="fill:#202020;" d="M423.232,234.457c0.084,0.649,0.153,1.302,0.203,1.957c0.485,6.33-0.955,13.118-5.364,17.686
						c0.756-0.783,3.85,0.065,4.798,0.073c2.266,0.02,4.561-0.298,6.757-0.846c0.372-0.093,0.761-0.204,1.029-0.479
						c0.31-0.319,0.392-0.788,0.459-1.228c0.874-5.7,1.749-11.494,0.972-17.208c-0.857-6.304-3.675-12.151-6.5-17.852
						c-1.063-2.145-2.249-4.412-4.341-5.577c-2.123-1.182-4.849-1.048-7.168-0.675c1.218-0.196,3.138,3.339,3.535,4.206
						c0.841,1.835,1.34,3.892,1.966,5.809C421.089,224.945,422.604,229.622,423.232,234.457z"/>
					<path style="fill:#202020;" d="M382.746,232.718c-0.084,0.649-0.153,1.302-0.203,1.957c-0.485,6.33,0.955,13.118,5.364,17.686
						c-0.755-0.783-3.85,0.065-4.798,0.073c-2.266,0.02-4.561-0.298-6.757-0.847c-0.372-0.093-0.762-0.204-1.029-0.479
						c-0.31-0.319-0.392-0.788-0.459-1.227c-0.874-5.7-1.749-11.494-0.972-17.208c0.857-6.304,3.675-12.151,6.5-17.852
						c1.063-2.145,2.249-4.412,4.34-5.577c2.123-1.182,4.849-1.049,7.169-0.675c-1.218-0.196-3.138,3.339-3.535,4.206
						c-0.841,1.835-1.34,3.892-1.966,5.809C384.889,223.206,383.374,227.883,382.746,232.718z"/>
				</g>
			</g>
			<g>
				<g>
					<g>
						<polygon style="fill:#E1CBA1;" points="433.963,427.475 436.449,472.058 431.444,521.119 418.774,519.644 414.539,472.147 
							408.754,442.936 						"/>
					</g>
					<g>
						<path style="fill:#363636;" d="M432.627,519.402c-0.355,2.068-0.535,4.437,0.604,5.944c1.245,1.647,3.579,2.028,4.462,4.137
							c0.37,0.883,0.339,1.88,0.209,2.829c-0.097,0.71-0.259,1.44-0.699,2.006c-0.726,0.936-2.006,1.197-3.174,1.394
							c-1.813,0.306-3.651,0.613-5.48,0.436c-3.151-0.305-5.913-2.003-8.384-3.871c-2.094-1.583-4.268-2.825-4.269-5.846
							c0-0.904,0.286-1.779,0.523-2.652c0.622-2.288,0.922-4.663,0.889-7.034c5.246,0.164,10.492,0.328,15.738,0.491
							C432.923,517.871,432.762,518.615,432.627,519.402z"/>
					</g>
				</g>
				<polygon style="fill:#485C82;" points="397.758,374.756 439.063,371.138 449.163,449.296 432.98,510.648 412.872,510.394 
					400.199,420.456 				"/>
			</g>
			<g>
				<g>
					<g>
						<polygon style="fill:#E1CBA1;" points="390.915,430.606 386.224,475.011 373.421,522.636 361.151,519.15 364.582,471.588 
							363.555,441.827 						"/>
					</g>
					<g>
						<path style="fill:#363636;" d="M374.863,521.13c-0.682,1.984-1.239,4.294-0.357,5.964c0.965,1.825,3.208,2.575,3.741,4.799
							c0.223,0.931,0.033,1.91-0.248,2.826c-0.21,0.685-0.487,1.38-1.011,1.868c-0.867,0.807-2.172,0.86-3.356,0.868
							c-1.838,0.011-3.702,0.02-5.479-0.448c-3.062-0.806-5.516-2.925-7.656-5.165c-1.813-1.898-3.76-3.472-3.277-6.455
							c0.145-0.892,0.567-1.711,0.941-2.534c0.98-2.159,1.658-4.455,2.005-6.8c5.152,1.002,10.304,2.005,15.455,3.007
							C375.401,519.667,375.123,520.375,374.863,521.13z"/>
					</g>
				</g>
				<polygon style="fill:#485C82;" points="361.47,382.835 399.991,379.143 408.754,442.936 376.615,512.546 356.807,509.073 
					358.713,418.267 				"/>
			</g>
		</g>
	</g>
	<g>
		<path style="fill:#6D8FCF;" d="M810.853,421.79l10.1,192.998c0.186,5.234,4.483,9.381,9.72,9.381h119.211
			c5.238,0,9.534-4.147,9.72-9.381l10.1-192.998H810.853z"/>
		<rect x="803.114" y="400.412" style="fill:#5A79B3;" width="174.33" height="21.378"/>
		<polygon style="fill:#6D8FCF;" points="969.705,400.412 810.853,400.412 823.173,343.432 957.385,343.432 		"/>
		<path style="fill:#464648;" d="M934.192,389.779h-87.826c-4.07,0-7.37-3.3-7.37-7.37V369.12c0-4.07,3.299-7.37,7.37-7.37h87.826
			c4.07,0,7.37,3.3,7.37,7.37v13.289C941.562,386.479,938.262,389.779,934.192,389.779z"/>
		<g>
			<path style="fill:#FFFFFF;" d="M913.836,525.219c-0.045-0.25-0.144-0.526-0.296-0.82c-0.148-0.283-0.588-1.099-1.17-2.174
				L913.836,525.219z"/>
			<path style="fill:#FFFFFF;" d="M891.753,496.266l5.531,1.646c1.965,0.585,5.18,1.543,7.148,2.128l5.531,1.646
				c1.965,0.584,3.943-0.608,4.395-2.651l1.274-5.747c0.45-2.043,1.188-5.385,1.641-7.429l1.274-5.747
				c0.454-2.042-0.834-2.715-2.858-1.496l-3.47,2.093c-1.272-2.218-2.544-4.424-3.034-5.231c-1.118-1.833-3.266-3.236-7.484-3.211
				c-3.132,0.018-11.452,0.066-16.715,0.098l6.979,12.542c0.156,0.16,0.302,0.362,0.432,0.629c0.333,0.689,1.598,3.06,2.858,5.403
				l-3.395,2.047C889.835,494.203,889.788,495.679,891.753,496.266z"/>
			<path style="fill:#FFFFFF;" d="M872.407,476.542c-1.793,2.786-6.339,10.2-6.339,10.2c-1.018,1.662-0.499,3.837,1.156,4.83
				l11.148,6.693c1.655,0.993,3.826,0.434,4.819-1.243c0,0,6.288-10.573,6.87-11.551c0.598-1.017,1.32-1.168,1.903-0.566
				l-6.979-12.542c-1.821,0.01-3.28,0.02-4.026,0.024C878.056,472.405,874.738,472.92,872.407,476.542z"/>
			<path style="fill:#FFFFFF;" d="M852.69,523.41c1.256,2.493,4.732,8.911,7.28,13.614l7.9-13.216
				c0.931-1.626,2.657-4.641,4.097-7.138l4.044,2.299c2.053,1.168,3.322,0.462,2.821-1.569l-1.416-5.714
				c-0.501-2.03-1.322-5.352-1.825-7.382l-1.412-5.714c-0.503-2.03-2.509-3.172-4.46-2.537l-5.489,1.789
				c-1.951,0.636-5.142,1.676-7.093,2.311l-5.489,1.788c-1.951,0.635-1.868,2.111,0.185,3.278l2.982,1.696
				c-1.523,3.014-3.316,6.573-3.769,7.594C850.23,516.352,850.735,519.534,852.69,523.41z"/>
			<path style="fill:#FFFFFF;" d="M867.87,523.808l-7.9,13.216c1.42,2.618,2.552,4.707,2.852,5.287
				c0.834,1.622,2.028,4.797,9.568,4.753C879.924,547.02,883.35,547,883.35,547c1.917-0.011,3.479-1.626,3.466-3.588l-0.073-13.237
				c-0.012-1.963-1.588-3.56-3.509-3.548c0,0-12.831,0.076-14.971,0.087c-1.351,0.008-1.523-0.908-1.049-1.76
				C867.28,524.839,867.521,524.419,867.87,523.808z"/>
			<path style="fill:#FFFFFF;" d="M913.836,525.219l6.531,13.347c2.286-4.309,6.166-11.793,7.752-15.028
				c2.122-4.329,2.722-8.081,1.744-10.053c-0.98-1.977-5.815-11.57-5.815-11.57c-0.88-1.745-2.935-2.331-4.57-1.302l-11.075,6.97
				c-1.635,1.027-2.207,3.272-1.274,4.986c0,0,3.365,6.19,5.239,9.656c0.582,1.075,1.022,1.89,1.17,2.174
				C913.692,524.693,913.791,524.969,913.836,525.219z"/>
			<path style="fill:#FFFFFF;" d="M918.75,541.558c0.258-0.447,0.848-1.541,1.617-2.992l-6.531-13.347
				c0.138,0.775-0.245,1.303-1.185,1.308c-0.643,0.004-3.823,0.023-6.754,0.041l-0.037-4.138c-0.022-2.404-1.247-3.184-2.726-1.734
				l-4.158,4.078c-1.479,1.448-3.898,3.819-5.375,5.269l-4.158,4.078c-1.479,1.449-1.456,3.798,0.042,5.22l4.231,4.002
				c1.503,1.422,3.961,3.747,5.466,5.169l4.229,4.002c1.503,1.421,2.718,0.619,2.696-1.785l-0.036-3.933
				c1.655-0.01,3.483-0.021,5.172-0.031C915.945,546.737,917.722,543.331,918.75,541.558z"/>
		</g>
	</g>
	<g>
		<path style="fill:#6E9173;" d="M426.021,424.254l10.1,192.998c0.186,5.234,4.483,9.381,9.72,9.381h119.211
			c5.238,0,9.534-4.147,9.72-9.381l10.1-192.998H426.021z"/>
		<rect x="418.282" y="402.876" style="fill:#5E7F5B;" width="174.33" height="21.378"/>
		<polygon style="fill:#6E9173;" points="584.873,402.876 426.021,402.876 438.341,345.896 572.553,345.896 		"/>
		<path style="fill:#413E47;" d="M549.36,392.243h-87.826c-4.07,0-7.37-3.299-7.37-7.37v-13.289c0-4.07,3.299-7.37,7.37-7.37h87.826
			c4.07,0,7.37,3.299,7.37,7.37v13.289C556.73,388.944,553.43,392.243,549.36,392.243z"/>
		<g>
			<path style="fill:#FFFFFF;" d="M529.004,527.683c-0.045-0.25-0.144-0.526-0.296-0.82c-0.148-0.283-0.588-1.099-1.17-2.174
				L529.004,527.683z"/>
			<path style="fill:#FFFFFF;" d="M506.922,498.729l5.531,1.646c1.966,0.585,5.18,1.543,7.148,2.128l5.531,1.647
				c1.965,0.584,3.943-0.608,4.395-2.651l1.274-5.747c0.45-2.043,1.189-5.385,1.641-7.429l1.274-5.747
				c0.454-2.042-0.834-2.715-2.858-1.496l-3.471,2.093c-1.272-2.218-2.544-4.424-3.034-5.231c-1.118-1.833-3.266-3.236-7.484-3.211
				c-3.132,0.018-11.452,0.066-16.715,0.098l6.979,12.542c0.156,0.16,0.302,0.362,0.432,0.629c0.333,0.689,1.598,3.06,2.858,5.403
				l-3.396,2.047C505.003,496.667,504.956,498.143,506.922,498.729z"/>
			<path style="fill:#FFFFFF;" d="M487.575,479.006c-1.793,2.786-6.338,10.2-6.338,10.2c-1.018,1.662-0.499,3.837,1.156,4.83
				l11.148,6.693c1.655,0.993,3.825,0.434,4.819-1.243c0,0,6.288-10.573,6.87-11.551c0.598-1.017,1.32-1.169,1.903-0.566
				l-6.979-12.542c-1.821,0.01-3.28,0.02-4.026,0.024C493.224,474.869,489.906,475.384,487.575,479.006z"/>
			<path style="fill:#FFFFFF;" d="M467.858,525.874c1.256,2.493,4.732,8.911,7.28,13.614l7.9-13.216
				c0.931-1.626,2.657-4.641,4.097-7.139l4.044,2.299c2.053,1.168,3.322,0.462,2.821-1.569l-1.416-5.714
				c-0.501-2.029-1.322-5.352-1.826-7.382l-1.412-5.714c-0.503-2.031-2.509-3.172-4.46-2.537l-5.489,1.789
				c-1.951,0.636-5.142,1.676-7.093,2.311l-5.489,1.788c-1.951,0.635-1.868,2.111,0.185,3.278l2.982,1.696
				c-1.523,3.014-3.316,6.573-3.769,7.594C465.398,518.816,465.903,521.998,467.858,525.874z"/>
			<path style="fill:#FFFFFF;" d="M483.038,526.272l-7.9,13.216c1.42,2.618,2.552,4.708,2.852,5.287
				c0.834,1.622,2.028,4.797,9.568,4.753c7.535-0.045,10.961-0.064,10.961-0.064c1.917-0.011,3.479-1.626,3.466-3.588l-0.073-13.237
				c-0.012-1.963-1.588-3.56-3.509-3.548c0,0-12.831,0.076-14.971,0.087c-1.351,0.008-1.523-0.908-1.049-1.76
				C482.448,527.303,482.689,526.883,483.038,526.272z"/>
			<path style="fill:#FFFFFF;" d="M529.004,527.683l6.531,13.347c2.286-4.309,6.166-11.793,7.752-15.028
				c2.122-4.329,2.722-8.081,1.744-10.053c-0.98-1.977-5.815-11.57-5.815-11.57c-0.88-1.745-2.935-2.33-4.57-1.302l-11.075,6.97
				c-1.635,1.027-2.207,3.272-1.274,4.987c0,0,3.365,6.19,5.239,9.655c0.582,1.075,1.022,1.891,1.17,2.174
				C528.86,527.157,528.959,527.433,529.004,527.683z"/>
			<path style="fill:#FFFFFF;" d="M533.918,544.022c0.258-0.447,0.848-1.541,1.617-2.992l-6.531-13.347
				c0.138,0.775-0.245,1.303-1.185,1.308c-0.643,0.004-3.823,0.023-6.754,0.04l-0.036-4.138c-0.022-2.404-1.247-3.184-2.726-1.734
				l-4.158,4.078c-1.479,1.448-3.898,3.819-5.375,5.269l-4.158,4.078c-1.479,1.449-1.456,3.799,0.043,5.22l4.231,4.002
				c1.503,1.421,3.961,3.747,5.466,5.169l4.229,4.002c1.503,1.421,2.718,0.619,2.696-1.785l-0.037-3.933
				c1.655-0.01,3.483-0.021,5.172-0.031C531.113,549.201,532.89,545.795,533.918,544.022z"/>
		</g>
	</g>
	<g>
		<path style="fill:#893F3B;" d="M229.175,424.254l10.1,192.998c0.186,5.234,4.483,9.381,9.72,9.381h119.211
			c5.237,0,9.534-4.147,9.72-9.381l10.1-192.998H229.175z"/>
		<rect x="221.436" y="402.876" style="fill:#7D2D2B;" width="174.33" height="21.378"/>
		<polygon style="fill:#893F3B;" points="388.027,402.876 229.175,402.876 241.495,345.896 375.707,345.896 		"/>
		<path style="fill:#413E47;" d="M352.514,392.243h-87.826c-4.07,0-7.37-3.299-7.37-7.37v-13.289c0-4.07,3.3-7.37,7.37-7.37h87.826
			c4.07,0,7.37,3.299,7.37,7.37v13.289C359.884,388.944,356.584,392.243,352.514,392.243z"/>
		<g>
			<path style="fill:#FFFFFF;" d="M332.158,527.683c-0.045-0.25-0.144-0.526-0.296-0.82c-0.148-0.283-0.588-1.099-1.17-2.174
				L332.158,527.683z"/>
			<path style="fill:#FFFFFF;" d="M310.075,498.729l5.531,1.646c1.966,0.585,5.18,1.543,7.148,2.128l5.531,1.647
				c1.965,0.584,3.943-0.608,4.395-2.651l1.274-5.747c0.45-2.043,1.189-5.385,1.641-7.429l1.274-5.747
				c0.454-2.042-0.834-2.715-2.858-1.496l-3.47,2.093c-1.272-2.218-2.543-4.424-3.034-5.231c-1.118-1.833-3.266-3.236-7.484-3.211
				c-3.132,0.018-11.452,0.066-16.715,0.098l6.979,12.542c0.156,0.16,0.302,0.362,0.432,0.629c0.333,0.689,1.598,3.06,2.858,5.403
				l-3.395,2.047C308.157,496.667,308.11,498.143,310.075,498.729z"/>
			<path style="fill:#FFFFFF;" d="M290.729,479.006c-1.793,2.786-6.339,10.2-6.339,10.2c-1.018,1.662-0.499,3.837,1.156,4.83
				l11.148,6.693c1.655,0.993,3.825,0.434,4.819-1.243c0,0,6.288-10.573,6.87-11.551c0.598-1.017,1.32-1.169,1.903-0.566
				l-6.979-12.542c-1.822,0.01-3.28,0.02-4.026,0.024C296.378,474.869,293.06,475.384,290.729,479.006z"/>
			<path style="fill:#FFFFFF;" d="M271.012,525.874c1.255,2.493,4.732,8.911,7.279,13.614l7.9-13.216
				c0.931-1.626,2.657-4.641,4.097-7.139l4.044,2.299c2.053,1.168,3.322,0.462,2.821-1.569l-1.416-5.714
				c-0.501-2.029-1.322-5.352-1.826-7.382l-1.412-5.714c-0.503-2.031-2.509-3.172-4.46-2.537l-5.489,1.789
				c-1.951,0.636-5.142,1.676-7.093,2.311l-5.489,1.788c-1.951,0.635-1.868,2.111,0.185,3.278l2.982,1.696
				c-1.523,3.014-3.316,6.573-3.769,7.594C268.552,518.816,269.057,521.998,271.012,525.874z"/>
			<path style="fill:#FFFFFF;" d="M286.192,526.272l-7.9,13.216c1.42,2.618,2.552,4.708,2.852,5.287
				c0.834,1.622,2.028,4.797,9.568,4.753c7.535-0.045,10.961-0.064,10.961-0.064c1.917-0.011,3.479-1.626,3.466-3.588l-0.073-13.237
				c-0.012-1.963-1.588-3.56-3.509-3.548c0,0-12.831,0.076-14.971,0.087c-1.351,0.008-1.523-0.908-1.049-1.76
				C285.602,527.303,285.843,526.883,286.192,526.272z"/>
			<path style="fill:#FFFFFF;" d="M332.158,527.683l6.531,13.347c2.286-4.309,6.166-11.793,7.752-15.028
				c2.122-4.329,2.722-8.081,1.744-10.053c-0.98-1.977-5.815-11.57-5.815-11.57c-0.88-1.745-2.935-2.33-4.57-1.302l-11.075,6.97
				c-1.635,1.027-2.207,3.272-1.274,4.987c0,0,3.365,6.19,5.239,9.655c0.582,1.075,1.022,1.891,1.17,2.174
				C332.014,527.157,332.113,527.433,332.158,527.683z"/>
			<path style="fill:#FFFFFF;" d="M337.072,544.022c0.258-0.447,0.848-1.541,1.617-2.992l-6.531-13.347
				c0.138,0.775-0.246,1.303-1.185,1.308c-0.643,0.004-3.823,0.023-6.754,0.04l-0.037-4.138c-0.022-2.404-1.247-3.184-2.726-1.734
				l-4.158,4.078c-1.479,1.448-3.898,3.819-5.375,5.269l-4.158,4.078c-1.479,1.449-1.456,3.799,0.043,5.22l4.231,4.002
				c1.503,1.421,3.961,3.747,5.466,5.169l4.229,4.002c1.503,1.421,2.718,0.619,2.696-1.785l-0.037-3.933
				c1.655-0.01,3.483-0.021,5.172-0.031C334.267,549.201,336.044,545.795,337.072,544.022z"/>
		</g>
	</g>
	<g>
		<path style="fill:#E7CB41;" d="M614.644,421.79l10.1,192.998c0.186,5.234,4.483,9.381,9.72,9.381h119.211
			c5.237,0,9.534-4.147,9.72-9.381l10.1-192.998H614.644z"/>
		<rect x="606.905" y="400.412" style="fill:#D1B32F;" width="174.33" height="21.378"/>
		<polygon style="fill:#E7CB41;" points="773.495,400.412 614.644,400.412 626.964,343.432 761.175,343.432 		"/>
		<path style="fill:#464648;" d="M737.982,389.779h-87.826c-4.07,0-7.37-3.3-7.37-7.37V369.12c0-4.07,3.299-7.37,7.37-7.37h87.826
			c4.07,0,7.37,3.3,7.37,7.37v13.289C745.352,386.479,742.052,389.779,737.982,389.779z"/>
		<g>
			<path style="fill:#FFFFFF;" d="M717.626,525.219c-0.045-0.25-0.144-0.526-0.296-0.82c-0.148-0.283-0.588-1.099-1.17-2.174
				L717.626,525.219z"/>
			<path style="fill:#FFFFFF;" d="M695.544,496.266l5.531,1.646c1.966,0.585,5.18,1.543,7.148,2.128l5.531,1.646
				c1.965,0.584,3.943-0.608,4.395-2.651l1.274-5.747c0.45-2.043,1.189-5.385,1.641-7.429l1.274-5.747
				c0.454-2.042-0.834-2.715-2.858-1.496l-3.47,2.093c-1.272-2.218-2.544-4.424-3.034-5.231c-1.118-1.833-3.266-3.236-7.484-3.211
				c-3.132,0.018-11.452,0.066-16.715,0.098l6.979,12.542c0.156,0.16,0.302,0.362,0.432,0.629c0.333,0.689,1.598,3.06,2.858,5.403
				l-3.395,2.047C693.625,494.203,693.578,495.679,695.544,496.266z"/>
			<path style="fill:#FFFFFF;" d="M676.198,476.542c-1.793,2.786-6.338,10.2-6.338,10.2c-1.018,1.662-0.499,3.837,1.156,4.83
				l11.148,6.693c1.655,0.993,3.825,0.434,4.819-1.243c0,0,6.288-10.573,6.87-11.551c0.598-1.017,1.32-1.168,1.903-0.566
				l-6.979-12.542c-1.821,0.01-3.28,0.02-4.026,0.024C681.847,472.405,678.528,472.92,676.198,476.542z"/>
			<path style="fill:#FFFFFF;" d="M656.481,523.41c1.255,2.493,4.732,8.911,7.28,13.614l7.9-13.216
				c0.931-1.626,2.657-4.641,4.097-7.138l4.044,2.299c2.053,1.168,3.323,0.462,2.821-1.569l-1.416-5.714
				c-0.501-2.03-1.323-5.352-1.826-7.382l-1.412-5.714c-0.503-2.03-2.509-3.172-4.46-2.537l-5.488,1.789
				c-1.951,0.636-5.142,1.676-7.093,2.311l-5.489,1.788c-1.951,0.635-1.868,2.111,0.185,3.278l2.982,1.696
				c-1.523,3.014-3.316,6.573-3.769,7.594C654.02,516.352,654.525,519.534,656.481,523.41z"/>
			<path style="fill:#FFFFFF;" d="M671.661,523.808l-7.9,13.216c1.42,2.618,2.552,4.707,2.852,5.287
				c0.833,1.622,2.028,4.797,9.568,4.753c7.535-0.045,10.961-0.064,10.961-0.064c1.917-0.011,3.479-1.626,3.466-3.588l-0.073-13.237
				c-0.012-1.963-1.588-3.56-3.509-3.548c0,0-12.831,0.076-14.971,0.087c-1.351,0.008-1.523-0.908-1.049-1.76
				C671.07,524.839,671.312,524.419,671.661,523.808z"/>
			<path style="fill:#FFFFFF;" d="M717.626,525.219l6.531,13.347c2.286-4.309,6.166-11.793,7.752-15.028
				c2.122-4.329,2.722-8.081,1.744-10.053c-0.98-1.977-5.815-11.57-5.815-11.57c-0.88-1.745-2.935-2.331-4.57-1.302l-11.075,6.97
				c-1.635,1.027-2.207,3.272-1.274,4.986c0,0,3.365,6.19,5.239,9.656c0.582,1.075,1.022,1.89,1.17,2.174
				C717.482,524.693,717.581,524.969,717.626,525.219z"/>
			<path style="fill:#FFFFFF;" d="M722.541,541.558c0.258-0.447,0.848-1.541,1.617-2.992l-6.531-13.347
				c0.138,0.775-0.245,1.303-1.185,1.308c-0.643,0.004-3.823,0.023-6.754,0.041l-0.036-4.138c-0.022-2.404-1.247-3.184-2.726-1.734
				l-4.158,4.078c-1.479,1.448-3.898,3.819-5.375,5.269l-4.158,4.078c-1.479,1.449-1.456,3.798,0.043,5.22l4.231,4.002
				c1.503,1.422,3.961,3.747,5.466,5.169l4.229,4.002c1.503,1.421,2.718,0.619,2.696-1.785l-0.037-3.933
				c1.655-0.01,3.483-0.021,5.172-0.031C719.736,546.737,721.513,543.331,722.541,541.558z"/>
		</g>
	</g>
	<g>
		<path style="fill:#BDC8CC;" d="M241.315,247.467c-2.535-4.794-8.476-6.625-13.27-4.089l-30.73,16.253
			c-4.794,2.535-6.624,8.477-4.089,13.27l14.109,26.677c2.874,5.434,7.372,9.468,12.577,11.882
			c-1.063,5.412-0.369,11.201,2.395,16.427l22.311,42.186c1.953,3.693,6.53,5.104,10.223,3.15l34.716-18.36
			c3.693-1.953,5.104-6.53,3.15-10.223l-22.311-42.187c-2.764-5.226-7.158-9.058-12.23-11.226c0.934-5.661,0.131-11.65-2.742-17.083
			L241.315,247.467z"/>
		
			<rect x="199.575" y="242.103" transform="matrix(0.884 -0.4675 0.4675 0.884 -91.2544 127.1307)" style="fill:#BDC8CC;" width="21.902" height="10.66"/>
		
			<rect x="193.048" y="231.254" transform="matrix(0.884 -0.4675 0.4675 0.884 -87.5501 123.8175)" style="fill:#5F71AD;" width="25.309" height="14.117"/>
		
			<rect x="225.837" y="316.472" transform="matrix(0.884 -0.4675 0.4675 0.884 -119.8839 152.737)" style="fill:#EAEAEA;" width="43.937" height="2.897"/>
		
			<rect x="233.174" y="330.344" transform="matrix(0.884 -0.4675 0.4675 0.884 -125.5185 157.7777)" style="fill:#EAEAEA;" width="43.937" height="2.897"/>
		
			<rect x="240.058" y="343.361" transform="matrix(0.884 -0.4675 0.4675 0.884 -130.805 162.5051)" style="fill:#EAEAEA;" width="43.937" height="2.897"/>
	</g>
	<g>
		<path style="fill:#807459;" d="M840.62,233.961l126.578,3.889l24.663-25.893l-125.441-3.854
			C866.42,208.103,841.153,235.115,840.62,233.961z"/>
		<polygon style="fill:#E4E1D0;" points="872.074,216.505 950.25,218.906 949.666,237.89 870.277,235.451 		"/>
		<g>
			<path style="fill:#DEDEDF;" d="M865.015,179.773c0,0,0.127,6.872,3.41,20.159l17.346,78.778l-8.936,1.968l-21.737-98.721
				L865.015,179.773z"/>
			<path style="fill:#DEDEDF;" d="M865.015,179.773c0.759,3.447-5.139,7.675-13.173,9.444c-8.034,1.769-15.162,0.409-15.921-3.038
				c-0.759-3.447,5.139-7.675,13.173-9.444C857.128,174.966,864.256,176.327,865.015,179.773z"/>
			<path style="fill:#C8CACB;" d="M844.26,181.903l1.795,8.154c1.551-0.069,3.192-0.268,4.886-0.641
				c5.476-1.206,10.315-3.104,11.104-6.531C860.794,178.554,849.151,180.767,844.26,181.903z"/>
			<path style="fill:#EAEAEA;" d="M851.567,189.272c-2.799,0.593-5.475,0.805-7.805,0.682c-4.263-0.226-7.356-1.571-7.841-3.773
				l11.643,52.878l10.094,45.842l25.608-5.638l-20.846-94.674l-0.375-1.703C861.286,186.18,856.781,188.06,851.567,189.272z"/>
		</g>
		<g>
			<path style="fill:#DEDEDF;" d="M1009.288,182.894c0,0-4.986,6.034-13.045,19.561l-48.885,78.907l-6.097-3.777l61.26-98.882
				L1009.288,182.894z"/>
			<path style="fill:#DEDEDF;" d="M1009.288,182.894c-2.139,3.452-8.316,3.498-13.798,0.103c-5.481-3.396-8.191-8.948-6.052-12.4
				c2.139-3.452,8.316-3.498,13.798-0.102C1008.718,173.89,1011.427,179.442,1009.288,182.894z"/>
			<path style="fill:#C8CACB;" d="M996.922,172.006l-5.06,8.167c0.858,0.892,1.858,1.726,3.014,2.442
				c3.736,2.314,7.65,3.638,10.58,1.153C1007.988,179.248,1000.302,174.023,996.922,172.006z"/>
			<path style="fill:#EAEAEA;" d="M995.308,182.875c-1.892-1.203-3.441-2.661-4.563-4.197c-2.052-2.811-2.674-5.874-1.307-8.08
				l-32.813,52.964l-28.447,45.917l17.471,10.824l58.748-94.828l1.057-1.706C1002.638,186.158,998.911,185.023,995.308,182.875z"/>
		</g>
		<g>
			<path style="fill:#DEDEDF;" d="M982.29,171.05c0,0-3.35,7.074-7.838,22.166l-27.995,88.5l-6.838-2.163l35.082-110.904
				L982.29,171.05z"/>
			<path style="fill:#DEDEDF;" d="M982.29,171.05c-1.225,3.872-7.202,5.435-13.349,3.49c-6.148-1.945-10.139-6.66-8.914-10.532
				c1.225-3.872,7.202-5.435,13.349-3.49C979.524,162.462,983.514,167.178,982.29,171.05z"/>
			<path style="fill:#C8CACB;" d="M967.627,163.535l-2.898,9.161c1.051,0.653,2.225,1.216,3.522,1.626
				c4.19,1.325,8.309,1.647,10.539-1.482C980.133,167.835,971.399,164.658,967.627,163.535z"/>
			<path style="fill:#EAEAEA;" d="M968.733,174.467c-2.13-0.701-3.99-1.734-5.454-2.947c-2.68-2.22-4.035-5.037-3.252-7.511
				l-18.791,59.403l-16.291,51.5l19.596,6.198l33.643-106.357l0.605-1.913C976.645,175.848,972.754,175.663,968.733,174.467z"/>
		</g>
		<g>
			<path style="fill:#C5C7C3;" d="M919.323,178.545c0,0-3.186,7.094-6.239,22.273l-20.265,88.98l-10.093-2.299l25.395-111.506
				L919.323,178.545z"/>
			<path style="fill:#C5C7C3;" d="M919.323,178.545c-0.887,3.893-8.962,5.374-18.036,3.307c-9.075-2.067-15.712-6.898-14.826-10.791
				c0.887-3.893,8.962-5.374,18.036-3.307C913.572,169.821,920.209,174.652,919.323,178.545z"/>
			<path style="fill:#B3B3AE;" d="M897.057,170.709l-2.098,9.21c1.621,0.678,3.396,1.266,5.309,1.702
				c6.185,1.409,12.052,1.801,14.514-1.324C915.592,175.261,902.61,171.907,897.057,170.709z"/>
			<path style="fill:#D2D2CE;" d="M900.979,181.775c-3.15-0.744-5.991-1.818-8.315-3.069c-4.253-2.288-6.769-5.157-6.203-7.645
				l-13.602,59.726l-11.792,51.779l28.924,6.588l24.354-106.934l0.438-1.923C912.415,183.302,906.898,183.051,900.979,181.775z"/>
		</g>
		
			<rect x="839.221" y="235.885" transform="matrix(0.9995 0.0307 -0.0307 0.9995 9.0376 -27.5815)" style="fill:#90826C;" width="126.638" height="89.159"/>
		<polygon style="fill:#A1916E;" points="840.62,233.961 831.758,271.838 956.628,275.674 967.236,237.265 		"/>
		<polygon style="fill:#847960;" points="991.886,211.159 989.314,294.877 964.485,326.169 967.223,237.052 		"/>
		<polygon style="fill:#928164;" points="967.198,237.85 978.268,265.997 1003.236,238.929 991.861,211.957 		"/>
		<path style="fill:#D1D9D7;" d="M893.248,235.612c0,0,23.005,0.146,29.728,19.69c0,0,29.428-19.569,35.555-18.421l-17.295-13.47
			l-14.822,3.679L893.248,235.612z"/>
	</g>
	<g>
		<g>
			<polygon style="fill:#81623B;" points="174.257,604.795 162.892,605.143 161.903,551.745 159.919,515.798 186.618,515.798 
				183.069,552.638 			"/>
			<g>
				<g>
					<path style="fill:#363636;" d="M176.511,603.399c-0.846,1.644-1.038,3.374-0.976,5.457c0.063,2.09,0.125,4.18,0.188,6.27
						c0.038,1.271,0.089,2.594,0.69,3.715c0.5,0.933,1.333,1.634,2.017,2.442c0.684,0.807,1.249,1.847,1.039,2.885
						c-0.212,1.046-1.184,1.804-2.214,2.084c-1.03,0.28-2.121,0.172-3.183,0.063c-1.283-0.133-2.566-0.265-3.85-0.398
						c-1.145-0.118-2.462-0.344-3.032-1.344c-0.319-0.56-0.318-1.238-0.368-1.88c-0.385-4.989-6.325-8.025-6.209-12.544
						c0.022-0.883,0.324-1.731,0.577-2.578c0.665-2.22,1.019-4.533,1.046-6.851c4.796,0.274,10.866-0.29,15.38,1.021
						C177.162,602.291,176.799,602.84,176.511,603.399z"/>
				</g>
			</g>
		</g>
		<g>
			<polygon style="fill:#81623B;" points="127.868,601.862 116.727,599.589 128.926,548.427 130.246,512.771 160.348,518.087 
				149.581,554.149 			"/>
			<g>
				<g>
					<path style="fill:#363636;" d="M130.383,601.021c-1.201,1.406-1.785,3.045-2.203,5.087c-0.419,2.049-0.839,4.097-1.258,6.146
						c-0.255,1.246-0.509,2.546-0.182,3.775c0.272,1.023,0.921,1.896,1.402,2.839c0.481,0.943,0.791,2.085,0.348,3.046
						c-0.447,0.969-1.567,1.484-2.634,1.52c-1.067,0.036-2.104-0.32-3.112-0.67c-1.218-0.424-2.437-0.848-3.655-1.272
						c-1.087-0.378-2.317-0.9-2.642-2.004c-0.182-0.618-0.026-1.278,0.074-1.915c0.772-4.943-4.312-9.263-3.161-13.635
						c0.225-0.854,0.713-1.611,1.154-2.376c1.158-2.008,2.033-4.178,2.593-6.427c4.604,1.368,10.641,2.215,14.734,4.528
						C131.271,600.092,130.791,600.543,130.383,601.021z"/>
				</g>
			</g>
		</g>
		<g>
			<g>
				<path style="fill:#514776;" d="M179.177,353.229c5.462,5.693,6.648,16.108,9.344,23.799c3.197,9.12,6.398,18.246,9.117,27.523
					c1.385,4.725,2.647,9.487,3.715,14.293c0.891,4.01,0.698,8.032,1.217,12.128c2.55,20.16,5.011,40.341,6.573,60.605
					c0.64,8.304,1.129,16.619,1.411,24.943c0.136,4.015,0.169,8.26-1.823,11.749c-7.229-0.498-14.096,0.099-21.327,0.715
					c-19.71,1.498-39.576,1.991-59.267-0.05c-2.278-0.236-25.701-2.902-25.652-4.258c1.225-34.133,0.456-67.976,5.185-101.982
					c2.524-18.15,3.996-37.795,13.355-53.549c4.606-7.754,13.002-13.705,21.187-17.492c9.085-4.204,19.425-3.754,29.105-2.392
					C174.675,349.734,177.205,351.173,179.177,353.229z"/>
			</g>
			<g>
				<g>
					<path style="fill:#807BAA;" d="M159.641,384.734c2.455,0.803,5.087,1.093,7.666,0.846c0.203-0.01,0.495-15.367,0.54-16.782
						c0.093-2.894-0.32-6.552,2.4-8.403c2.936-1.999,8.437-2.249,7.407-7.349c-0.456-2.256-2.45-3.95-4.624-4.705
						c-2.174-0.755-4.529-0.736-6.83-0.71c-2.959,0.034-5.918,0.069-8.875,0.189c-5.891,0.24-11.943,0.871-17.161,3.615
						c-4.196,2.207-4.054,7.363-1.989,11.167c0.435,0.802,0.957,1.575,1.666,2.149c1.782,1.441,4.975,1.783,7.177,1.312
						c2.283-0.488,4.056-2.19,6.089-3.318c1.382-0.766,4.379-1.752,5.589-0.219c0.883,1.118,0.296,4.52,0.343,5.814
						C159.098,369.948,158.756,384.445,159.641,384.734z"/>
				</g>
				<path style="fill:#F1F1F1;" d="M163.854,368.618c0.107-0.77,0.231-4.464-1.115-4.369c-0.341,0.025-0.626,0.292-0.772,0.601
					c-0.383,0.814-0.356,2.242-0.395,3.122c-0.022,0.482-0.009,0.987,0.216,1.414c0.225,0.427,0.721,0.747,1.187,0.623
					C163.538,369.861,163.774,369.196,163.854,368.618z"/>
				<path style="fill:#F1F1F1;" d="M163.854,379.248c0.107-0.77,0.231-4.464-1.115-4.369c-0.341,0.025-0.626,0.292-0.772,0.602
					c-0.383,0.814-0.356,2.242-0.395,3.122c-0.022,0.482-0.009,0.987,0.216,1.414c0.225,0.427,0.721,0.747,1.187,0.623
					C163.538,380.491,163.774,379.826,163.854,379.248z"/>
			</g>
		</g>
		<g>
			<path style="fill:#363636;" d="M192.697,303.481c1.41,0.343,3.077,4.575,3.45,6.101c0.396,1.62,0.459,3.421,1.342,4.662
				c0.83-1.197,0.909-3.003,0.631-4.577c-0.166-0.938-0.966-1.375-1.233-2.322c-0.312-1.11-0.134-2.455-0.226-3.604
				c-0.052-0.653-0.176-1.336-0.533-1.826c-0.33-0.453-0.809-0.674-1.247-0.948c-1.154-0.723-2.118-1.928-2.697-3.371
				c-0.193-0.48-0.351-0.999-0.656-1.38c-0.194-0.243-0.428-0.406-0.683-0.521c-0.131-0.191-0.277-0.374-0.45-0.541
				c-1.052-1.017-2.701-1.15-3.297-2.634c-0.334-0.832-0.2-1.806-0.151-2.724c0.589-11.199-8.686-10.764-14.35-12.409
				c-5.407-1.57-8.686-4.323-13.03,2.629c-4.203,6.727-1.814,10.82,0.722,17.183c2.034,5.103,1.107,8.703,2.076,14.172
				c0.755,4.26,3.16,7.87,4.045,12.109c0.787,3.768,0.454,7.771,1.317,11.516c0.863,3.745,3.701,7.419,6.687,6.504
				c-0.438,2.837,1.324,5.975,3.622,6.452c2.299,0.478,4.668-1.801,4.872-4.686c1.934,0.426,4.548,0.353,5.036-2
				c0.169-0.815-0.002-1.689,0.051-2.532c0.228-3.568,3.892-4.64,6.752-4.805c-1.095-3.907,0.098-8.564,2.779-10.845
				c-1.026-0.464-1.333-2.145-1.146-3.472c0.188-1.327,0.697-2.587,0.653-3.941c-0.125-3.809-4.215-5.576-5.278-9.18
				c-0.279-0.946-0.341-1.982-0.32-3.042C191.85,303.495,192.332,303.38,192.697,303.481z"/>
			<path style="fill:#363636;" d="M121.25,294.418c0.211,0.912,0.546,1.871,0.231,2.738c-0.563,1.547-2.75,1.857-3.998,2.987
				c-3.003,2.719,0.865,7.621-0.017,11.478c-0.85,3.716-6.049,5.923-5.61,9.743c0.156,1.358,1.04,2.562,1.502,3.868
				s0.319,3.019-0.982,3.593c3.956,1.991,6.296,6.515,5.45,10.538c3.858-0.143,8.938,0.533,9.811,4.074
				c0.206,0.837,0.116,1.729,0.472,2.525c1.029,2.299,4.542,2.09,7.066,1.456c0.733,2.862,4.27,4.884,7.274,4.158
				c3.004-0.725,4.864-4.051,3.826-6.839c4.146,0.592,7.363-3.386,7.923-7.221c0.56-3.835-0.522-7.799-0.069-11.65
				c0.51-4.332,3.157-8.199,3.491-12.538c0.428-5.57-1.387-9.068,0.525-14.386c2.384-6.632,4.934-10.981-1.768-17.25
				c-2.088-1.953-4.58-3.67-7.577-3.872c-1.105-0.075-2.175,0.261-3.253,0.153c-1.747-0.175-3.257-1.482-4.966-0.279
				c-0.452,0.318-0.772,0.772-1.189,1.129c-1.548,1.323-3.99,1.05-6.109,0.715c-0.785-0.124-1.619-0.241-2.34,0.039
				c-2.048,0.794-1.813,4.086-3.912,4.768c-2.539,0.824-3.723,0.942-5.154,3.432C120.719,289.793,120.733,292.18,121.25,294.418z"/>
			<path style="fill:#81623B;" d="M177.909,314.688c-0.029-0.085-0.057-0.17-0.084-0.255c-1.067-3.33-0.94-6.914-1.53-10.361
				c-1.699-9.911-13.14-12.027-21.753-9.958c-11.72,2.816-14.77,11.498-15.507,22.301c-0.092,1.344-0.551,3.076-1.896,3.15
				c-0.675,0.037-1.28-0.41-1.946-0.525c-1.696-0.293-2.993,1.596-3.226,3.301c-0.291,2.125,0.353,4.385,1.812,5.959
				c1.448,1.561,2.918,1.384,4.673,2.089c2.773,1.114,1.169-0.301,2.699,2.348c1.956,3.388,3.42,6.526,6.811,8.789
				c3.428,2.288,3.469,3.249,3.664,7.579c0.1,2.227,0.644,4.714,2.528,5.905c0.993,0.628,2.206,0.786,3.378,0.865
				c1.601,0.109,3.211,0.099,4.811-0.028c1.231-0.098,2.537-0.301,3.461-1.119c1.428-1.264,1.42-3.456,1.282-5.358
				c-0.378-5.212-0.299-4.574,3.452-7.351c5.223-3.866,11.637-12.209,10.519-19.057C180.581,320.043,178.86,317.49,177.909,314.688z
				"/>
			<path style="fill:#363636;" d="M137.979,313.666c-1.306,0.969-2.962,1.662-3.39,3.142c-0.254,0.879,0.013,1.833-0.092,2.742
				c-0.167,1.439-1.362,2.693-2.87,3.013c-2.788,0.591-4.924-1.763-6.14-3.764c-1.837-3.02-5.523-5.016-9.187-4.974
				c-1.967,0.023-3.858,0.582-5.803,0.8c-3.675,0.413-8.833-1.102-10.488-4.442c-0.212-0.427-0.416-0.874-0.41-1.338
				c0.007-0.463,0.283-0.946,0.759-1.064c0.591-0.147,1.163,0.287,1.717,0.56c1.53,0.755,5.014-0.035,6.271-1.004
				c1.483-1.143,0.827-3.357,0.593-5.177c-0.599-4.653,3.03-9.307,7.919-10.155c1.55-0.269,3.168-0.196,4.706-0.516
				c3.548-0.737,6.125-3.398,8.951-5.478c2.826-2.08,6.8-3.669,10.059-1.996c0.936,0.481,1.732,1.201,2.714,1.59
				c3.656,1.448,6.853-0.263,10.492,1.532c3.725,1.837,8.445,5.632,8.189,9.456c0.079-1.186-1.755-1.685-2.949-1.298
				c-1.195,0.387-2.304,1.215-3.576,1.04c-1.672-0.231-2.753-2.102-4.433-2.247c-1.397-0.12-2.492,1.018-3.127,2.158
				c-0.635,1.14-1.11,2.451-2.241,3.18c-1.542,0.994-3.829,0.582-5.328,1.629c-1.708,1.193-1.577,3.621-1.107,5.613
				s1.077,4.233-0.097,5.897C138.811,312.989,138.414,313.343,137.979,313.666z"/>
			<path style="fill:#363636;" d="M175.179,298.807c2.665,0.545,3.726,3.836,3.612,6.554c-0.047,1.134-0.154,2.429,0.642,3.237
				c0.426,0.432,1.029,0.626,1.571,0.899c2.36,1.189,3.582,4.246,2.693,6.734c2.202-1.345,3.098-4.467,1.944-6.776
				c-0.388-0.776-0.963-1.444-1.368-2.21c-1.246-2.36-0.711-5.213-0.866-7.878c-0.063-1.085-0.273-2.223-0.982-3.047
				c-0.655-0.763-1.635-1.144-2.525-1.613c-2.348-1.236-4.268-3.267-5.372-5.68c-0.367-0.803-0.661-1.669-1.267-2.312
				c-0.973-1.033-2.51-1.256-3.926-1.356c-1.24-0.087-2.661-0.055-3.485,0.875c-0.385,0.435-0.585,1.017-1.01,1.413
				c-2.52,2.347-5.533-0.737-5.094,4.409c0.272,3.19,0.493,2.712,3.139,2.692c2.619-0.02,4.137-1.746,6.598,0.324
				c1.166,0.981,0.752,2.53,2.131,3.371C172.556,299.017,174.131,298.558,175.179,298.807z"/>
		</g>
	</g>
	<g>
		<path style="fill:#81623B;" d="M226.839,324.235c-0.053-0.862,0.045-1.964,0.864-2.24c1.012-0.34,1.758,0.945,2.054,1.971
			c2.238-2.334,2.597-6.244,0.822-8.947c1.637-1.895,4.701-2.102,6.879-0.866c2.178,1.236,3.521,3.614,4.055,6.061
			c0.803,3.685-0.678,7.541-2.252,10.815c-1.175,2.444-2.356,4.896-3.357,7.418c-0.278,0.702-0.658,3.146-1.249,3.561
			c-1.362,0.957-6.528-1.179-7.963-1.692c-0.115-0.041-0.236-0.088-0.307-0.187c-0.146-0.206,0.005-0.484,0.146-0.693
			c0.906-1.343,1.489-2.923,1.537-4.543c0.052-1.756-0.908-3.017-1.185-4.641C226.562,328.367,226.957,326.168,226.839,324.235z"/>
		<path style="fill:#564F7E;" d="M219.583,369.929c7.481-9.3,14.788-19.035,17.971-30.486c0.155-0.556,0.296-1.165,0.07-1.696
			c-0.222-0.521-0.743-0.84-1.234-1.122c-4.425-2.539-8.964-4.88-13.597-7.014c0.406,0.187-11.239,17.005-13.249,18.714
			c-6.484,5.513-13.761,9.91-21.827,12.695c-10.464,3.613-21.554,4.474-32.354,6.606c-7.481,1.477-17.463,2.92-19.139,11.932
			c-0.871,4.686,0.861,9.581,3.764,13.361c7.759,10.102,22.706,12.238,34.871,8.461c8.827-2.741,16.543-7.996,23.713-13.695
			c6.504-5.17,13.774-8.817,19.048-15.325C218.274,371.552,218.929,370.742,219.583,369.929z"/>
	</g>
	<g>
		<path style="fill:#5F7957;" d="M413.549,102.185l9.881-28.188c0.889-2.536-0.376-5.322-2.871-6.322l-7.122-2.855
			c-2.494-1-5.334,0.142-6.442,2.589l-12.323,27.209c-0.893,1.973-2.944,3.074-5.104,2.92c-6.721-0.48-13.308,3.374-15.94,9.942
			l-29.374,73.284c-1.032,2.574,0.219,5.497,2.793,6.529l36.934,14.804c2.574,1.032,5.497-0.219,6.529-2.793l29.374-73.284
			c2.633-6.568,0.531-13.905-4.661-18.199C413.555,106.442,412.832,104.229,413.549,102.185z"/>
		
			<rect x="406.367" y="63.704" transform="matrix(0.9282 0.372 -0.372 0.9282 54.5824 -150.3882)" style="fill:#516849;" width="21.263" height="5.086"/>
		<g>
			<path style="fill:#7F9977;" d="M404.418,155.689l-2.942-1.179l10.664-26.605c3.773-11.152-2.168-14.008-2.423-14.124l1.262-2.908
				c0.366,0.156,8.919,3.996,4.133,18.13L404.418,155.689z"/>
		</g>
	</g>
	<g>
		<g>
			<path style="fill:#6D6456;" d="M490.839,269.522l-2.394-23.043c-0.323-2.952-2.902-5.133-5.866-4.962l-5.114,0.296
				c-2.965,0.172-5.275,2.636-5.255,5.605l0.279,23.166c0.015,2.238-1.294,4.303-3.366,5.15c-5.572,2.277-9.376,7.917-9.01,14.241
				l5.065,87.587c0.178,3.075,2.815,5.424,5.89,5.246l34.12-1.973c3.075-0.178,5.424-2.815,5.246-5.89l-5.065-87.587
				c-0.366-6.324-4.795-11.488-10.592-13.108C492.621,273.647,491.082,271.746,490.839,269.522z"/>
			
				<rect x="470.447" y="241.01" transform="matrix(0.9983 -0.0577 0.0577 0.9983 -13.2482 28.1272)" style="fill:#635946;" width="19.342" height="4.627"/>
			<g>
				<path style="fill:#897E72;" d="M504.104,317.766l-2.878,0.166l-1.505-26.03c-1.204-10.642-7.201-10.696-7.456-10.693
					l-0.085-2.882c0.361-0.013,8.889-0.158,10.413,13.33L504.104,317.766z"/>
			</g>
		</g>
		<path style="fill:#E1CBA1;" d="M487.259,252.637c-1.241-0.198-2.608-0.377-3.687,0.216c-0.562,0.309-0.981,0.799-1.539,1.114
			c-0.735,0.415-1.787,0.617-2.001,1.38c-0.259,0.925,0.961,1.564,1.932,1.922c0.971,0.357,2.095,1.242,1.562,2.063
			c-0.393,0.607-1.36,0.561-2.054,0.872c-1.04,0.467-1.294,1.939-0.461,2.674c0.65,0.573,1.645,0.625,2.489,0.921
			c0.844,0.296,1.638,1.191,1.145,1.882c-0.104,0.145-0.253,0.259-0.368,0.397c-0.707,0.843,0.179,2.097,1.256,2.5
			c1.078,0.403,2.314,0.349,3.379,0.778c0.998,0.402,1.74,1.18,2.575,1.82c0.835,0.639,1.921,1.173,2.979,0.932
			c1.563-0.356,2.124-2.097,2.27-3.558c0.413-4.138-0.302-8.366-2.061-12.2C493.181,253.087,490.734,253.193,487.259,252.637z"/>
	</g>
	<g>
		<g>
			<path style="fill:#E9DCD4;" d="M795.729,287.224c3.403,0.526,6.833,0.894,9.939,1.471c7.751,1.441,15.612,2.509,23.548,2.281
				c3.827-0.11,8.414-1,9.989-4.292c1.25-2.612-0.141-5.661-2.423-7.4c-2.282-1.739-5.267-2.483-8.137-3.261
				c-7.886-2.135-15.62-4.809-23.534-6.839c-6.657-1.707-14.603-4.375-21.338-0.927c-2.483,1.271-4.636,3.669-5.057,6.548
				c-0.583,3.984,2.28,7.617,5.644,9.284C787.73,285.76,791.711,286.602,795.729,287.224z"/>
			<g>
				<path style="fill:#E9DCD4;" d="M852.816,235.174c-0.005-0.226-0.002-0.452,0.018-0.678c0.083-0.922,0.576-1.927,1.438-2.129
					c2.808-0.657,2.22,5.567,4.75,1.907c0.69-0.998,1.524-8.405,2.242-8.558c3.665-0.785,7.945,2.02,7.525,6.136
					c-0.284,2.787-1.969,5.509-3.434,7.713c-1.804,2.713-4.164,5.112-5.883,7.851c-1.423,2.267-2.014,4.884-2.893,7.474
					c-3.861,11.377-7.678,24.537-16.821,32.462c-2.797,2.424-4.441,2.901-7.299,1.278c-2.78-1.578-5.451-3.987-5.609-7.639
					c-0.146-3.371,1.938-6.416,3.917-9.129c2.986-4.096,5.774-8.581,8.947-12.447c3.019-3.679,6.866-6.347,9.298-10.601
					c1.603-2.802,3.62-8.364,3.869-11.549C852.934,236.569,852.833,235.871,852.816,235.174z"/>
			</g>
		</g>
		<path style="fill:#3D6A82;" d="M769.779,287.319c0.07,0.137,0.139,0.274,0.209,0.411c2.357,4.615,5.027,9.544,9.714,11.755
			c6.617,3.122,14.125-2.045,16.695-8.071c1.287-3.018,1.791-6.246,2.537-9.404c0.547-2.316,1.229-4.607,1.911-6.896
			c1.121-3.766,5.907-13.683-0.376-14.59c-3.148-0.454-6.41,0.346-9.373-0.08c-4.293-0.618-7.117-1.629-11.185,1.175
			c-3.47,2.392-5.818,6.053-8.071,9.615c-2.167,3.425-4.425,7.241-3.843,11.252C768.244,284.193,768.996,285.776,769.779,287.319z"
			/>
	</g>
	<g>
		<path style="fill:#FFFFFF;" d="M867.976,434.771c0.101,0.101,0.402,0.101,0.803,0c1.306-0.301,2.662-0.1,3.666,0.302
			c2.084,1.205,2.235,3.615,1.407,5.975c-1.708,3.063-4.671,3.992-4.671,4.093c0,0.402,1.081,5.975,0.477,6.854
			c-1.632,0.677-2.284-0.202-2.385-0.302c-0.301-0.302-0.578-1.883-0.98-4.77c-0.099-1.582-0.2-2.586-0.2-6.076
			c0-2.385-0.101-4.368-0.101-4.569c0-0.201,0.477-0.904,0.477-1.004c0.101-0.402,0.301-0.603,0.904-0.503
			C867.675,434.771,867.976,434.771,867.976,434.771z M871.666,438.361c0.126-0.803-0.101-1.406-0.402-1.707
			c-0.301-0.201-0.803-0.201-1.708,0c-0.602,0.1-0.577,0.1-0.677,1.205c0,1.481,0.101,4.393,0.202,4.393
			C869.081,442.253,871.214,441.173,871.666,438.361z"/>
		<path style="fill:#FFFFFF;" d="M875.51,441.6c1.079-5.072,1.506-6.502,1.958-6.954c0.175-0.101,0.351-0.126,0.703-0.176
			c1.381-0.151,1.531,0.979,1.43,1.858c-0.099,0.627,0,0.728,0.176,1.355c0.101,0.351,0.904,2.485,1.531,4.368
			c0.98,2.862,1.155,3.389,1.331,3.389c0.452,0.176,1.079-0.1,1.23,0.628c0.351,0.879-0.778,0.954-0.778,0.954
			c0,0.101,0.879,3.113,0.879,3.214c-0.025,1.482-2.687,1.281-2.763,0.276c-0.099-0.176-1.054-2.937-1.054-2.937
			c-0.175-0.101-2.234,0.703-2.41,0.703c-0.351,0.176-0.276,0-0.627,2.059c-0.101,0.703-0.176,1.406-0.277,1.506
			c-1.054,1.18-3.088-0.125-2.761-1.155C874.179,449.082,874.707,445.266,875.51,441.6z M879.527,445.441
			c0,0-0.277-0.803-0.553-1.607c-0.276-0.879-0.528-1.531-0.528-1.531c-0.099,0-0.728,3.666-0.627,3.666
			C877.819,446.069,879.527,445.542,879.527,445.441z"/>
		<path style="fill:#FFFFFF;" d="M887.11,434.771c0.101,0.101,0.402,0.101,0.803,0c1.306-0.301,2.661-0.1,3.666,0.302
			c2.083,1.205,2.234,3.615,1.405,5.975c-1.708,3.063-4.669,3.992-4.669,4.093c0,0.402,1.079,5.975,0.477,6.854
			c-1.632,0.677-2.286-0.202-2.385-0.302c-0.302-0.302-0.578-1.883-0.98-4.77c-0.101-1.582-0.202-2.586-0.202-6.076
			c0-2.385-0.099-4.368-0.099-4.569c0-0.201,0.477-0.904,0.477-1.004c0.099-0.402,0.301-0.603,0.903-0.503
			C886.809,434.771,887.11,434.771,887.11,434.771z M890.801,438.361c0.124-0.803-0.101-1.406-0.402-1.707
			c-0.302-0.201-0.803-0.201-1.708,0c-0.603,0.1-0.578,0.1-0.677,1.205c0,1.481,0.099,4.393,0.2,4.393
			C888.215,442.253,890.349,441.173,890.801,438.361z"/>
		<path style="fill:#FFFFFF;" d="M896.149,435.775c0.553-0.276,2.713-0.728,4.946-1.104c1.857-0.176,2.335-0.201,2.988,0.276
			c0.753,0.603,0.276,1.356,0.074,1.382c-2.585,0.276-5.674,0.753-5.674,0.753c-0.099,0-0.099,3.087-0.2,3.841
			c0,1.129,0,1.305,0.101,1.305c0.099,0.101,2.133-0.477,2.41-0.477c1.129,0,1.883,0.754,1.607,1.407
			c-0.176,0.376-1.958,0.929-3.741,1.305c-0.477,0.1-0.477,0.076-0.477,1.482c0.101,1.582,0.202,2.335,0.477,2.987
			c0.276,0.753,0.202,0.753,1.682-0.452c0.753-0.552,1.23-0.753,2.059-0.477c0.829,0.276,1.104,0.829,0.728,1.582
			c-0.276,0.552-1.306,1.506-1.958,1.782c-5.474,2.51-5.975-2.987-6.051-4.293c-0.202-3.088,0.551-9.791,0.652-10.168
			c0.101-0.101,0.101-0.276,0-0.377C895.672,436.353,895.873,435.951,896.149,435.775z"/>
		<path style="fill:#FFFFFF;" d="M905.993,439.416c-0.101-4.067-0.101-4.067,0.2-4.368c0.654-0.477,1.558-0.101,1.758,0
			c0.202,0.201,0.351,0.276,0.955,0.1c1.279-0.351,2.911-0.1,3.54,0.201c1.13,0.628,1.807,1.482,1.682,2.938
			c-0.277,3.339-2.738,4.619-2.938,4.82c-0.528,0.427-0.503,0.402-0.301,0.829c0.099,0.201,0.652,1.029,1.029,1.857
			c0.728,1.582,1.708,2.938,2.008,3.239c0.629,0.729,0.703,1.08,0.603,1.381c-1.155,1.08-2.185,0.402-3.013-0.426
			c-0.728-0.729-0.929-1.055-1.456-1.984c-0.301-0.728-0.629-1.355-0.728-1.456c-0.101-0.101-0.101,0.502-0.101,2.485
			c0.101,1.883,0,2.712,0,2.913c-0.301,0.628-1.281,0.753-2.21,0.452c-0.829-0.427-0.829-0.327-0.928-4.82
			C906.094,445.266,905.993,441.625,905.993,439.416z M909.959,440.47c1.13-1.13,1.632-2.41,1.331-3.339
			c-0.452-0.578-1.432-0.302-2.059-0.101c-0.528,0.201-0.528,0.201-0.427,0.628c0,0.301,0.225,3.641,0.326,3.641
			C909.131,441.299,909.533,440.897,909.959,440.47z"/>
	</g>
	<g>
		<path style="fill:#FFFFFF;" d="M475.275,437.284c0.903-1.431,1.706-2.234,2.686-2.51c0.627-0.176,1.531-0.076,2.158,0.276
			c1.934,0.929,1.081,2.234,0.803,2.41c-0.351,0.101-1.18,0-1.531-0.276c-0.276-0.176-0.276-0.176-0.627,0.1
			c-0.629,0.729-1.506,2.31-1.958,3.389c-0.629,1.532-1.18,3.866-1.18,5.473c0,2.159,0.577,3.791,1.883,3.841
			c4.343,0.176,3.84-4.193,3.666-4.293c-0.176-0.1-0.879,0-1.506,0.352c-0.803,0.351-1.533,0.276-2.059-0.176
			c-0.578-0.402-0.277-0.979,0.175-1.255c2.16-1.355,5.123-0.979,6.101,0.803c0.677,3.013-1.004,5.021-1.456,5.297
			c-0.176,0-0.452,0.176-0.629,0.352c-1.155,0.979-3.037,1.33-4.745,0.979c-4.871-1.281-4.469-6.98-4.368-8.059
			c0.151-2.636,1.758-5.649,1.857-5.825C474.646,438.163,474.922,437.736,475.275,437.284z"/>
		<path style="fill:#FFFFFF;" d="M485.594,437.962c-0.099-2.762-0.099-2.988,0.101-3.188c0.202-0.201,1.382-0.201,1.808,0
			c0.526,0.326,0.652,0.753,0.753,1.707c0.2,1.055,0.427,6.477,0.528,9.967c0,1.481,0.099,2.761,0.099,2.761s0.326,0,0.753-0.101
			c0.955-0.326,2.008-0.527,2.637-0.527c0.953-0.1,1.607,0.527,1.607,1.155c-0.101,1.029-4.595,1.883-6.377,2.661
			c-0.427,0.201-1.155-0.226-1.482-0.653c-0.2-0.201-0.225-0.301-0.326-5.498C485.695,443.284,485.594,439.544,485.594,437.962z"/>
		<path style="fill:#FFFFFF;" d="M496.794,441.703c1.079-5.072,1.506-6.502,1.958-6.954c0.175-0.101,0.351-0.126,0.703-0.176
			c1.382-0.15,1.531,0.979,1.43,1.858c-0.099,0.627,0,0.728,0.177,1.355c0.101,0.351,0.904,2.485,1.531,4.368
			c0.98,2.862,1.155,3.389,1.331,3.389c0.452,0.176,1.079-0.1,1.23,0.628c0.351,0.879-0.778,0.954-0.778,0.954
			c0,0.101,0.879,3.113,0.879,3.214c-0.025,1.482-2.687,1.281-2.763,0.276c-0.099-0.176-1.054-2.937-1.054-2.937
			c-0.175-0.101-2.234,0.703-2.41,0.703c-0.351,0.176-0.276,0-0.627,2.059c-0.101,0.702-0.176,1.406-0.277,1.506
			c-1.054,1.18-3.088-0.125-2.762-1.155C495.463,449.185,495.991,445.368,496.794,441.703z M500.811,445.544
			c0,0-0.277-0.803-0.553-1.607c-0.276-0.879-0.528-1.531-0.528-1.531c-0.099,0-0.728,3.666-0.627,3.666
			C499.104,446.172,500.811,445.645,500.811,445.544z"/>
		<path style="fill:#FFFFFF;" d="M509.099,436.582c1.205-1.205,1.882-1.607,2.987-1.808c0.202-0.101,0.703-0.101,1.104-0.101
			c1.582,0.101,2.687,0.778,2.988,2.084c0.301,0.803,0.276,1.607,0.076,2.209c-0.151,1.13-2.185,0.903-2.587,0.1
			c-0.301-0.201-0.301-0.201-0.2-1.205c0.099-0.803,0.099-1.004-0.101-1.004c-0.202,0-0.98,0.703-1.682,1.406
			c-1.682,1.983-2.183,3.289-1.582,3.992c0.101,0.202,0.778,0.578,1.682,1.08c2.385,1.205,3.188,1.883,3.891,3.188
			c1.079,3.992-1.506,5.072-2.987,5.574c-1.106,0.301-2.084,0.2-2.988-0.202c-1.331-0.552-2.109-2.284-2.109-2.787
			c0-0.803,0.402-1.079,1.407-0.979c1.004,0.101,1.582,0.577,1.582,1.281c0.101,0.703,1.405,0.201,2.008-0.803
			c0.402-0.703,0.402-1.281,0-1.983c-0.402-0.503-0.803-0.778-2.787-1.782c-2.286-1.105-2.988-1.908-3.188-3.39
			C506.411,440.146,507.516,438.062,509.099,436.582z"/>
		<path style="fill:#FFFFFF;" d="M520.423,436.582c1.205-1.205,1.882-1.607,2.987-1.808c0.202-0.101,0.703-0.101,1.104-0.101
			c1.582,0.101,2.687,0.778,2.988,2.084c0.301,0.803,0.276,1.607,0.076,2.209c-0.151,1.13-2.185,0.903-2.587,0.1
			c-0.301-0.201-0.301-0.201-0.2-1.205c0.099-0.803,0.099-1.004-0.101-1.004c-0.202,0-0.98,0.703-1.682,1.406
			c-1.682,1.983-2.183,3.289-1.582,3.992c0.101,0.202,0.778,0.578,1.682,1.08c2.385,1.205,3.188,1.883,3.891,3.188
			c1.079,3.992-1.506,5.072-2.987,5.574c-1.106,0.301-2.084,0.2-2.988-0.202c-1.331-0.552-2.109-2.284-2.109-2.787
			c0-0.803,0.402-1.079,1.407-0.979c1.004,0.101,1.582,0.577,1.582,1.281c0.101,0.703,1.405,0.201,2.008-0.803
			c0.402-0.703,0.402-1.281,0-1.983c-0.402-0.503-0.803-0.778-2.787-1.782c-2.286-1.105-2.988-1.908-3.188-3.39
			C517.736,440.146,518.84,438.062,520.423,436.582z"/>
	</g>
	<g>
		<path style="fill:#FFFFFF;" d="M670.594,435.08c0,0,0.124-0.076,0.326-0.277c0.602-0.402,2.108-0.025,2.41,0.578
			c0.351,4.493,1.682,13.557,1.682,13.758c0,0.302,0.124,0.602,0.225,0.803c0.301,0.703-0.126,1.305-1.029,1.305
			c-1.081,0.101-1.783-0.326-2.084-1.229c-0.202-0.803-0.879-5.9-1.205-6.603c-0.402,0.351-0.654,3.364-1.407,3.615
			c-0.602,0.301-1.908,0-2.309-0.402c0-0.101-0.301-0.603-0.503-1.105c-0.803-1.707-0.803-1.808-0.703,0.402
			c0,1.004,0.477,5.046,0,6.628c-0.627,0.402-1.581,0.201-1.882,0c-0.904-0.402-0.929-0.402-1.03-3.414
			c-0.2-7.03-0.2-9.766-0.2-11.549c0-2.008,0-2.008,0.2-2.309c1.205-0.879,2.008,0.201,2.309,0.602
			c0.704,1.305,2.134,5.273,2.713,6.025L670.594,435.08z"/>
		<path style="fill:#FFFFFF;" d="M677.826,435.632c0.553-0.276,2.713-0.728,4.946-1.104c1.857-0.176,2.335-0.201,2.988,0.276
			c0.753,0.603,0.276,1.356,0.074,1.382c-2.585,0.276-5.674,0.753-5.674,0.753c-0.099,0-0.099,3.087-0.2,3.841
			c0,1.129,0,1.305,0.101,1.305c0.099,0.101,2.133-0.477,2.41-0.477c1.129,0,1.882,0.754,1.607,1.407
			c-0.177,0.377-1.958,0.929-3.741,1.305c-0.477,0.1-0.477,0.076-0.477,1.482c0.101,1.582,0.202,2.335,0.477,2.987
			c0.276,0.753,0.202,0.753,1.682-0.452c0.753-0.552,1.23-0.753,2.059-0.477c0.828,0.276,1.104,0.829,0.728,1.582
			c-0.276,0.552-1.306,1.506-1.958,1.782c-5.474,2.51-5.975-2.987-6.051-4.293c-0.202-3.088,0.551-9.791,0.652-10.168
			c0.101-0.101,0.101-0.276,0-0.377C677.349,436.21,677.55,435.808,677.826,435.632z"/>
		<path style="fill:#FFFFFF;" d="M692.516,434.653c1.38-0.201,2.661-0.376,2.862-0.402c0.803-0.075,2.234,0,2.535,0.201
			c0.778,0.503,1.081,1.155,0.578,1.657c-0.301,0.301-0.202,0.301-1.857,0.301c-0.679,0-1.558,0-1.859,0.101
			c-0.576,0.1-0.576,0.1-0.576,1.281c0.2,3.715,0.576,8.711,0.978,10.77c0.301,1.757,0.402,2.636,0.301,2.937
			c-0.099,0.302-0.803,0.577-1.38,0.577c-0.578,0-1.281-0.276-1.581-0.778c-0.301-0.301-0.377-1.155-0.677-3.615
			c-0.402-3.715-0.578-7.457-0.578-10.093c-0.101-0.677-0.101-0.703-0.98-0.602c-1.656,0.2-2.435,0.125-2.936-0.377
			c-0.302-0.301-0.402-0.878,0-1.079C687.746,435.23,689.679,434.955,692.516,434.653z"/>
		<path style="fill:#FFFFFF;" d="M699.573,441.457c1.079-5.072,1.506-6.502,1.958-6.954c0.175-0.101,0.351-0.126,0.703-0.176
			c1.382-0.15,1.531,0.979,1.43,1.858c-0.099,0.627,0,0.728,0.177,1.355c0.101,0.351,0.904,2.485,1.531,4.368
			c0.98,2.862,1.155,3.389,1.331,3.389c0.452,0.176,1.079-0.1,1.23,0.628c0.351,0.879-0.778,0.954-0.778,0.954
			c0,0.101,0.879,3.113,0.879,3.214c-0.025,1.482-2.687,1.281-2.763,0.276c-0.099-0.176-1.054-2.937-1.054-2.937
			c-0.175-0.101-2.234,0.703-2.41,0.703c-0.351,0.176-0.276,0-0.627,2.059c-0.101,0.703-0.176,1.406-0.277,1.506
			c-1.054,1.18-3.087-0.125-2.761-1.155C698.242,448.939,698.769,445.122,699.573,441.457z M703.59,445.298
			c0,0-0.277-0.803-0.553-1.607c-0.276-0.879-0.528-1.531-0.528-1.531c-0.099,0-0.728,3.666-0.627,3.666
			C701.882,445.926,703.59,445.399,703.59,445.298z"/>
		<path style="fill:#FFFFFF;" d="M709.289,437.716c-0.099-2.762-0.099-2.988,0.101-3.188c0.202-0.201,1.382-0.201,1.808,0
			c0.526,0.326,0.652,0.753,0.753,1.707c0.2,1.055,0.427,6.477,0.528,9.967c0,1.481,0.099,2.762,0.099,2.762s0.326,0,0.753-0.101
			c0.955-0.326,2.008-0.527,2.637-0.527c0.953-0.1,1.607,0.527,1.607,1.155c-0.101,1.029-4.595,1.883-6.377,2.661
			c-0.427,0.201-1.155-0.226-1.482-0.653c-0.2-0.201-0.225-0.301-0.326-5.498C709.39,443.038,709.289,439.298,709.289,437.716z"/>
	</g>
	<g>
		<path style="fill:#FFFFFF;" d="M276.41,434.919c0.101,0.101,0.402,0.101,0.803,0c1.306-0.301,2.662-0.1,3.666,0.302
			c2.084,1.205,2.235,3.615,1.407,5.975c-1.707,3.063-4.671,3.992-4.671,4.093c0,0.402,1.081,5.975,0.477,6.854
			c-1.632,0.677-2.284-0.202-2.385-0.302c-0.301-0.302-0.578-1.883-0.98-4.77c-0.099-1.582-0.2-2.586-0.2-6.076
			c0-2.385-0.101-4.368-0.101-4.569c0-0.201,0.477-0.904,0.477-1.004c0.101-0.402,0.301-0.602,0.904-0.503
			C276.109,434.919,276.41,434.919,276.41,434.919z M280.101,438.509c0.126-0.803-0.101-1.406-0.402-1.707
			c-0.301-0.201-0.803-0.201-1.708,0c-0.602,0.1-0.577,0.1-0.677,1.205c0,1.481,0.101,4.393,0.202,4.393
			C277.516,442.401,279.649,441.321,280.101,438.509z"/>
		<path style="fill:#FFFFFF;" d="M284.37,438.008c-0.099-2.761-0.099-2.988,0.101-3.188c0.202-0.201,1.382-0.201,1.808,0
			c0.526,0.326,0.652,0.753,0.753,1.707c0.2,1.055,0.427,6.478,0.528,9.967c0,1.481,0.099,2.761,0.099,2.761s0.326,0,0.753-0.101
			c0.955-0.326,2.008-0.527,2.637-0.527c0.953-0.1,1.607,0.527,1.607,1.155c-0.101,1.03-4.595,1.883-6.377,2.661
			c-0.427,0.201-1.155-0.226-1.482-0.653c-0.2-0.201-0.225-0.301-0.326-5.498C284.471,443.329,284.37,439.589,284.37,438.008z"/>
		<path style="fill:#FFFFFF;" d="M295.57,441.748c1.079-5.072,1.506-6.502,1.958-6.954c0.175-0.101,0.351-0.126,0.703-0.176
			c1.382-0.15,1.531,0.979,1.43,1.858c-0.099,0.627,0,0.728,0.177,1.356c0.101,0.351,0.904,2.485,1.531,4.368
			c0.98,2.862,1.155,3.389,1.331,3.389c0.452,0.176,1.079-0.1,1.23,0.628c0.351,0.879-0.778,0.954-0.778,0.954
			c0,0.101,0.879,3.113,0.879,3.214c-0.025,1.482-2.687,1.281-2.763,0.276c-0.099-0.176-1.054-2.937-1.054-2.937
			c-0.175-0.101-2.234,0.703-2.41,0.703c-0.351,0.176-0.276,0-0.627,2.059c-0.101,0.703-0.176,1.406-0.277,1.506
			c-1.054,1.18-3.087-0.125-2.762-1.155C294.239,449.23,294.767,445.414,295.57,441.748z M299.587,445.589
			c0,0-0.277-0.803-0.553-1.607c-0.276-0.879-0.528-1.531-0.528-1.531c-0.099,0-0.728,3.666-0.627,3.666
			C297.88,446.217,299.587,445.69,299.587,445.589z"/>
		<path style="fill:#FFFFFF;" d="M307.875,436.627c1.205-1.205,1.882-1.607,2.987-1.808c0.202-0.101,0.702-0.101,1.104-0.101
			c1.582,0.101,2.687,0.778,2.988,2.084c0.301,0.803,0.276,1.607,0.076,2.209c-0.151,1.13-2.185,0.904-2.587,0.1
			c-0.301-0.201-0.301-0.201-0.2-1.205c0.099-0.803,0.099-1.004-0.101-1.004c-0.202,0-0.98,0.703-1.682,1.406
			c-1.682,1.983-2.183,3.289-1.582,3.992c0.101,0.202,0.778,0.578,1.682,1.08c2.385,1.205,3.188,1.883,3.891,3.188
			c1.079,3.992-1.506,5.072-2.987,5.574c-1.106,0.301-2.084,0.2-2.988-0.202c-1.331-0.552-2.109-2.284-2.109-2.787
			c0-0.803,0.402-1.079,1.407-0.979c1.003,0.101,1.582,0.577,1.582,1.281c0.101,0.702,1.405,0.201,2.009-0.803
			c0.402-0.703,0.402-1.281,0-1.983c-0.402-0.503-0.803-0.778-2.787-1.782c-2.286-1.105-2.988-1.908-3.188-3.39
			C305.187,440.192,306.292,438.108,307.875,436.627z"/>
		<path style="fill:#FFFFFF;" d="M322.337,434.944c1.38-0.201,2.661-0.376,2.862-0.402c0.803-0.075,2.234,0,2.535,0.201
			c0.778,0.503,1.081,1.155,0.578,1.657c-0.301,0.301-0.202,0.301-1.857,0.301c-0.679,0-1.558,0-1.859,0.101
			c-0.576,0.1-0.576,0.1-0.576,1.281c0.2,3.715,0.576,8.711,0.978,10.77c0.301,1.757,0.402,2.636,0.301,2.937
			c-0.099,0.302-0.803,0.577-1.38,0.577c-0.578,0-1.281-0.276-1.582-0.778c-0.301-0.301-0.377-1.155-0.677-3.615
			c-0.402-3.715-0.578-7.457-0.578-10.093c-0.101-0.677-0.101-0.703-0.98-0.602c-1.656,0.2-2.435,0.125-2.936-0.377
			c-0.303-0.301-0.402-0.878,0-1.079C317.567,435.522,319.5,435.246,322.337,434.944z"/>
		<path style="fill:#FFFFFF;" d="M329.971,437.329c-0.099-2.309,0-2.51,0.402-2.611c0.704-0.1,1.407,0,1.808,0.402
			c0.301,0.402,0.528,1.306,0.829,4.419c0.2,1.908,0.402,3.64,1.104,10.896c0.351,1.682-0.602,2.008-1.306,2.008
			c-1.004-0.101-1.731-0.503-1.832-1.406C330.774,449.631,330.072,439.74,329.971,437.329z"/>
		<path style="fill:#FFFFFF;" d="M335.897,441.849c0.753-4.092,2.234-6.327,4.368-6.879c1.682-0.376,3.514,0.201,4.269,1.305
			c0.753,1.105,0.476,2.41-0.452,2.41c-0.753,0-1.682-0.451-1.682-0.828c0-0.176-0.276-0.829-0.376-0.829
			c0,0-0.202,0.075-0.376,0.176c-1.657,0.552-2.135,3.816-2.311,4.469c-0.652,3.062-0.276,6.678,0.829,7.983
			c0.452,0.552,0.929,0.477,2.235-0.552c2.158-1.959,3.264-0.477,3.439-0.302c0.101,2.461-3.54,3.64-5.02,3.54
			c-4.143,0.025-4.646-3.54-5.022-5.297C335.621,446.016,335.721,442.878,335.897,441.849z"/>
	</g>
	<g>
		<path style="fill:#979797;" d="M710.531,360.149c-0.528,4.479-13.935,6.58-29.946,4.693c-16.01-1.888-28.561-7.049-28.033-11.529
			c0.528-4.479,13.935-6.58,29.946-4.693C698.509,350.508,711.06,355.67,710.531,360.149z"/>
		<path style="fill:#BBC0C2;" d="M717.815,230.532l-43.778-4.793c-1.825-0.2-3.641,0.45-4.924,1.763l-14.316,14.639
			c-0.342,0.374-0.558,0.845-0.617,1.348l-11.444,97.064c-0.579,4.909,2.27,9.603,6.915,11.292
			c8.516,3.096,18.917,6.035,31.048,7.449c14.201,1.656,24.074,3.047,33.439-0.246c6.526-2.295,7.349-6.846,7.881-12.01
			l11.407-94.23c0.058-0.488-0.034-0.982-0.264-1.416l-10.88-18.008C721.318,231.789,719.667,230.734,717.815,230.532z"/>
		<g>
			<path style="fill:#D6DADB;" d="M721.778,231.904l-51.367-6.011l-16.156,16.95l0,0l-0.045,0.383
				c11.278,4.607,24.599,7.27,39.114,8.981c14.514,1.711,28.264,1.734,40.129,0.362l0.046-0.383L721.778,231.904z"/>
		</g>
		
			<linearGradient id="SVGID_1_" gradientUnits="userSpaceOnUse" x1="814.573" y1="801.3118" x2="814.573" y2="787.1097" gradientTransform="matrix(0.9953 0.0972 -0.0972 0.9953 -55.3061 -627.6385)">
			<stop  offset="0" style="stop-color:#FFFFFF"/>
			<stop  offset="1" style="stop-color:#000000"/>
		</linearGradient>
		<path style="opacity:0.42;fill:url(#SVGID_1_);" d="M667.761,247.36c0,0,15.353,3.764,19.518,4.073l1.834-18.788l-11.418-2.099
			L667.761,247.36z"/>
		<g>
			<g>
				<path style="fill:#E4E4E4;" d="M721.738,227.849c0.074,0.096,0.141,0.193,0.198,0.288
					C721.881,228.033,721.814,227.938,721.738,227.849z"/>
				<path style="fill:#7F7F7F;" d="M722.235,229.081c-0.004-0.309-0.106-0.625-0.299-0.944c0.183,0.344,0.263,0.75,0.276,1.177
					C722.224,229.237,722.236,229.16,722.235,229.081z"/>
				<path style="fill:#7F7F7F;" d="M721.936,228.137c-0.058-0.096-0.124-0.192-0.198-0.288c-2.282-2.98-12.21-6.224-24.795-7.708
					c-14.251-1.68-26.124-0.449-26.662,2.747c-0.004,0.022-0.013,0.044-0.015,0.066c-0.059,0.497,0.16,1.015,0.619,1.54
					c0.858-1.995,6.968-3.053,15.355-2.888c3.201,0.063,6.73,0.303,10.428,0.739c3.576,0.422,6.957,0.985,10.005,1.639
					c8.543,1.834,14.449,4.389,14.588,6.588c0.549-0.374,0.876-0.794,0.953-1.258C722.2,228.887,722.12,228.481,721.936,228.137z"/>
				<path style="fill:#CACACA;" d="M722.212,229.314c-0.077,0.465-0.404,0.885-0.953,1.258c-3.07,2.09-13.124,2.71-25.702,1.322
					c-12.163-1.342-22.135-4.495-24.673-7.4c-0.459-0.525-0.677-1.043-0.619-1.54c0.003-0.022,0.012-0.044,0.015-0.066
					c-0.349,0.945-0.262,2.156-0.328,2.715c-0.383,3.246,10.941,7.249,25.292,8.941c14.351,1.692,26.295,0.433,26.678-2.813
					C721.979,231.25,722.238,230.25,722.212,229.314z"/>
				<path style="fill:#8C9191;" d="M706.671,223.984c-3.048-0.654-6.429-1.217-10.005-1.639c-3.698-0.436-7.227-0.676-10.428-0.739
					c-8.386-0.165-14.497,0.892-15.355,2.888c2.538,2.906,12.51,6.059,24.673,7.4c12.578,1.388,22.632,0.768,25.702-1.322
					C721.12,228.373,715.214,225.818,706.671,223.984z"/>
			</g>
			<g>
				<path style="fill:#363636;" d="M694.976,226.103c-4.238-0.142-8.533,0.607-11.779,2.392c3.381,0.777,7.192,1.43,11.258,1.879
					c4.139,0.457,7.995,0.692,11.429,0.733C704.914,225.867,700.22,226.278,694.976,226.103z"/>
			</g>
			<g>
				<path style="fill:#E4E4E4;" d="M694.695,231.947c-11.62-1.37-21.487-4.408-24.16-7.469c-0.562-0.644-0.809-1.289-0.735-1.918
					l0.024-0.111c0.678-4.027,14.518-4.622,27.195-3.128c12.347,1.456,22.68,4.703,25.124,7.895c0.085,0.11,0.162,0.223,0.229,0.334
					c0.239,0.397,0.363,0.798,0.368,1.188c0.002,0.108-0.012,0.213-0.03,0.319c-0.098,0.592-0.487,1.124-1.159,1.58
					c-3.283,2.235-13.5,2.785-26.028,1.403C695.245,232.01,694.969,231.979,694.695,231.947z M696.904,220.288
					c-14.868-1.753-25.703-0.172-26.126,2.344c-0.052,0.387,0.117,0.778,0.49,1.206c2.185,2.503,11.251,5.784,24.361,7.237
					c12.122,1.338,22.319,0.839,25.375-1.241c0.443-0.301,0.694-0.616,0.747-0.935c0.008-0.049,0.016-0.097,0.015-0.146l0-0.001
					c-0.002-0.215-0.079-0.451-0.229-0.699c-0.048-0.08-0.104-0.161-0.167-0.242C719.43,225.276,710.404,221.879,696.904,220.288z"
					/>
			</g>
			<path style="fill:#CACACA;" d="M720.608,213.421c-0.706-1.167-2.208-2.953-5.173-3.857c-3.026-0.923-5.992-0.428-7.627-0.005
				c-0.715,0.185-1.357,0.624-1.715,1.185c-2.983,4.67-5.966,9.339-8.948,14.007c-0.459,0.718-0.409,1.553,0.141,2.068
				c0.868,0.813,2.08,1.749,3.725,2.588c1.717,0.875,3.422,1.401,4.872,1.723c0.945,0.21,1.997-0.165,2.596-0.92
				c3.921-4.937,7.883-9.927,11.888-14.971C720.84,214.643,720.935,213.962,720.608,213.421z M705.976,228.488l-6.262-2.835
				c-0.555-0.251-0.678-0.908-0.272-1.434l3.629-4.709c0.375-0.486,1.079-0.71,1.612-0.509l5.863,2.212
				c0.597,0.225,0.809,0.83,0.476,1.378l-3.22,5.319C707.44,228.509,706.602,228.772,705.976,228.488z M714.346,219.163
				c-0.428,0.526-1.246,0.755-1.855,0.521l-6.952-2.662c-0.53-0.203-0.69-0.755-0.37-1.263l1.985-3.154
				c0.108-0.171,0.255-0.333,0.449-0.45c1.315-0.794,3.952-1.43,6.208-0.514c2.349,0.954,3.572,2.535,3.435,3.72
				c-0.021,0.177-0.134,0.357-0.271,0.516C715.974,217.046,715.25,218.053,714.346,219.163z"/>
		</g>
		
			<linearGradient id="SVGID_00000166671720527484993020000011605803470547006350_" gradientUnits="userSpaceOnUse" x1="798.2402" y1="855.3549" x2="819.2115" y2="855.299" gradientTransform="matrix(0.9953 0.0972 -0.0972 0.9953 -55.3061 -627.6385)">
			<stop  offset="0" style="stop-color:#FFFFFF"/>
			<stop  offset="1" style="stop-color:#000000"/>
		</linearGradient>
		<path style="opacity:0.32;fill:url(#SVGID_00000166671720527484993020000011605803470547006350_);" d="M665.08,247.074
			l-13.879,105.183c2.089,1.24,4.933,2.658,8.476,3.717c3.983,1.191,7.504,1.527,10.11,1.578l12.056-106.118
			c-2.573-0.596-5.194-1.236-7.861-1.924C670.932,248.722,667.964,247.908,665.08,247.074z"/>
		<polygon style="opacity:0.49;fill:#FFFFFF;" points="677.294,230.732 677.524,228.378 680.365,229.274 680.135,231.63 		"/>
		<polygon style="opacity:0.49;fill:#FFFFFF;" points="681.057,231.888 681.282,229.584 682.719,229.857 682.248,232.303 		"/>
		
			<linearGradient id="SVGID_00000154397712280764325290000017383799923603415716_" gradientUnits="userSpaceOnUse" x1="838.3467" y1="870.8018" x2="878.9109" y2="830.2375" gradientTransform="matrix(0.9953 0.0972 -0.0972 0.9953 -55.3061 -627.6385)">
			<stop  offset="0" style="stop-color:#FFFFFF"/>
			<stop  offset="1" style="stop-color:#000000"/>
		</linearGradient>
		<path style="opacity:0.08;fill:url(#SVGID_00000154397712280764325290000017383799923603415716_);" d="M710.933,253.487
			l-10.514,107.702c2.159,0.008,4.697-0.155,7.495-0.675c1.585-0.295,3.037-0.664,4.347-1.062
			c3.972-35.413,8.236-70.586,12.209-105.999c-1.822,0.292-4.137,0.284-6.336,0.397C715.48,253.987,713.08,253.65,710.933,253.487z"
			/>
		
			<linearGradient id="SVGID_00000111149961563238506750000002604815446426963340_" gradientUnits="userSpaceOnUse" x1="857.1844" y1="794.2853" x2="863.3215" y2="788.1483" gradientTransform="matrix(0.9953 0.0972 -0.0972 0.9953 -55.3061 -627.6385)">
			<stop  offset="0" style="stop-color:#FFFFFF"/>
			<stop  offset="1" style="stop-color:#000000"/>
		</linearGradient>
		<path style="opacity:0.11;fill:url(#SVGID_00000111149961563238506750000002604815446426963340_);" d="M714.244,234.661
			l8.154,18.754c1.74,0.071,3.71,0.052,5.861-0.135c1.912-0.166,3.655-0.439,5.206-0.755c-3.859-6.819-7.718-13.637-11.576-20.456
			C721.889,232.07,718.032,235.078,714.244,234.661z"/>
	</g>
	<g>
		<path style="fill:#E1CBAD;" d="M666.385,278.459l5.701-5.809l0.714-4.676l4.735-4.824c0,0,3.154,2.356,2.785,2.733
			c-0.791,0.807-1.312,2.437-1.161,3.493c2.19-0.426,4.163-1.659,5.896-3.017c1.51-1.183,3.199-3.433,4.588-0.653
			c0.373,0.746,0.451,1.607,0.416,2.441c-0.087,2.107-0.867,4.181-2.19,5.823c-1.044,1.295-2.443,2.378-3,3.945
			c-0.092,0.258-0.163,0.533-0.341,0.741c-0.432,0.503-3.1,0.968-3.839,1.238c-0.819,0.3-2.068,0.507-2.781,1.018
			c-0.001,0.001-6.734,4.834-6.734,4.834L666.385,278.459z"/>
		<path style="fill:#A2676D;" d="M635.233,292.132c11.777-3.776,26.85-16.052,32.731-19.857c2.851,2.045,5.283,4.699,7.063,7.724
			c2.299,3.908,2.033,4.209-0.81,7.336c-4.753,5.227-10.617,9.804-16.154,14.165c-13.957,10.995-24.214,21.962-43.963,18.608
			c-5.369-0.912-10.505-2.837-15.603-4.751c-6.69-2.512-13.38-5.025-20.07-7.537c-1.693-0.636-3.408-1.283-4.88-2.334
			c-4.849-3.462-8.057-7.58-8.005-13.862c0.043-5.176,2.245-10.13,5.175-14.397c2.753-4.01,6.695-7.804,11.555-8.018
			c3.291-0.145,6.397,1.384,9.323,2.897c8.636,4.463,17.174,9.114,25.609,13.946c1.791,1.026,3.702,1.938,5.188,3.396
			c0.857,0.841,1.393,2.035,2.394,2.73C627.699,294.2,632.145,293.122,635.233,292.132z"/>
	</g>
</g>
</svg>
