<svg width="20" height="26" viewBox="0 0 20 26" fill="none" xmlns="http://www.w3.org/2000/svg">
<path d="M17.3131 8.3382V8.33825L17.3204 8.33815C17.3653 8.3375 17.4119 8.34772 17.4577 8.37084C17.5038 8.39412 17.5497 8.43097 17.5896 8.48285C17.6295 8.53487 17.6615 8.59965 17.6801 8.67364C17.6987 8.74729 17.7029 8.82556 17.6919 8.90213C17.6919 8.90248 17.6918 8.90283 17.6918 8.90319L15.3517 24.5735C15.3311 24.6956 15.2749 24.7958 15.2048 24.8616C15.1356 24.9265 15.0584 24.9541 14.9882 24.9545H4.22918C4.15895 24.9541 4.08182 24.9265 4.01264 24.8616C3.94245 24.7957 3.88626 24.6956 3.86572 24.5734L1.52561 8.90321C1.52556 8.90289 1.52551 8.90256 1.52547 8.90223C1.51466 8.82655 1.5186 8.74917 1.53663 8.6762C1.55474 8.60292 1.58593 8.53851 1.62513 8.48647C1.66423 8.43456 1.70943 8.39728 1.75498 8.37334C1.79971 8.34983 1.84531 8.33879 1.88927 8.3382H17.3131ZM0.629059 5.25894L0.255848 5.59168L0.629058 5.25894C0.551731 5.17221 0.5 5.04346 0.5 4.89887C0.5 4.75428 0.551731 4.62554 0.629059 4.5388C0.704714 4.45395 0.794187 4.4191 0.873518 4.4191H5.24111H5.74111V3.9191V0.979775C5.74111 0.835183 5.79284 0.706439 5.87016 0.619706C5.94582 0.534847 6.03529 0.5 6.11462 0.5H13.1028C13.1821 0.5 13.2716 0.534848 13.3472 0.619706C13.4246 0.706438 13.4763 0.835181 13.4763 0.979775V3.9191V4.4191H13.9763H18.3439C18.4232 4.4191 18.5127 4.45395 18.5883 4.53881C18.6657 4.62554 18.7174 4.75428 18.7174 4.89887C18.7174 5.04347 18.6657 5.17221 18.5883 5.25894C18.5127 5.3438 18.4232 5.37865 18.3439 5.37865H0.873518C0.794187 5.37865 0.704714 5.3438 0.629059 5.25894ZM12.2292 4.4191H12.7292V3.9191V1.95955V1.45955H12.2292H6.98814H6.48814V1.95955V3.9191V4.4191H6.98814H12.2292Z" fill="#11CF1D" stroke="black"/>
</svg>
